<?xml version="1.0" encoding="UTF-8"?>
<!DOCTYPE svg PUBLIC "-//W3C//DTD SVG 1.1//EN" "http://www.w3.org/Graphics/SVG/1.1/DTD/svg11.dtd">
<svg xmlns="http://www.w3.org/2000/svg" version="1.1" width="528px" height="528px" style="shape-rendering:geometricPrecision; text-rendering:geometricPrecision; image-rendering:optimizeQuality; fill-rule:evenodd; clip-rule:evenodd" xmlns:xlink="http://www.w3.org/1999/xlink">
<g><path style="opacity:1" fill="#f9f9fb" d="M 374.5,114.5 C 374.833,114.5 375.167,114.5 375.5,114.5C 375.5,116.5 376.5,117.5 378.5,117.5C 378.833,117.5 379.167,117.5 379.5,117.5C 380.031,119.544 381.198,121.211 383,122.5C 383.399,122.272 383.565,121.938 383.5,121.5C 384.167,121.833 384.833,122.167 385.5,122.5C 387.43,126.1 390.097,129.1 393.5,131.5C 395.5,134.167 397.833,136.5 400.5,138.5C 401.585,140.587 403.251,141.92 405.5,142.5C 405.5,142.833 405.5,143.167 405.5,143.5C 406.167,146.167 407.833,147.833 410.5,148.5C 410.5,148.833 410.5,149.167 410.5,149.5C 410.5,151.5 411.5,152.5 413.5,152.5C 413.5,152.833 413.5,153.167 413.5,153.5C 413.5,155.5 414.5,156.5 416.5,156.5C 416.5,156.833 416.5,157.167 416.5,157.5C 417.551,160.961 419.551,163.627 422.5,165.5C 422.5,165.833 422.5,166.167 422.5,166.5C 423.37,169.378 424.703,172.045 426.5,174.5C 426.957,175.298 427.624,175.631 428.5,175.5C 430.105,178.378 431.439,181.378 432.5,184.5C 432.062,184.435 431.728,184.601 431.5,185C 435.769,192.368 438.769,200.201 440.5,208.5C 436.167,208.5 431.833,208.5 427.5,208.5C 424.421,199.665 420.754,190.998 416.5,182.5C 416.043,181.702 415.376,181.369 414.5,181.5C 414.5,181.167 414.5,180.833 414.5,180.5C 414.446,178.368 413.446,177.035 411.5,176.5C 411.5,176.167 411.5,175.833 411.5,175.5C 411.019,172.166 409.353,169.833 406.5,168.5C 406.5,168.167 406.5,167.833 406.5,167.5C 406.5,165.5 405.5,164.5 403.5,164.5C 403.5,164.167 403.5,163.833 403.5,163.5C 403.5,161.5 402.5,160.5 400.5,160.5C 400.5,160.167 400.5,159.833 400.5,159.5C 400.5,157.5 399.5,156.5 397.5,156.5C 397.167,155.833 396.833,155.167 396.5,154.5C 396.938,154.565 397.272,154.399 397.5,154C 395.229,151.218 392.563,149.051 389.5,147.5C 387.833,145.167 385.833,143.167 383.5,141.5C 382.92,139.251 381.587,137.585 379.5,136.5C 377.332,132.988 374.332,130.655 370.5,129.5C 370.167,129.5 369.833,129.5 369.5,129.5C 369.5,127.5 368.5,126.5 366.5,126.5C 366.167,126.5 365.833,126.5 365.5,126.5C 365.5,124.5 364.5,123.5 362.5,123.5C 362.167,123.5 361.833,123.5 361.5,123.5C 361.586,122.504 361.252,121.671 360.5,121C 307.852,88.4286 252.519,83.0952 194.5,105C 187.374,108.397 180.374,112.063 173.5,116C 172.748,116.671 172.414,117.504 172.5,118.5C 172.167,118.5 171.833,118.5 171.5,118.5C 169.368,118.554 168.035,119.554 167.5,121.5C 167.167,121.5 166.833,121.5 166.5,121.5C 165.167,121.5 164.5,122.167 164.5,123.5C 164.167,123.5 163.833,123.5 163.5,123.5C 161.5,123.5 160.5,124.5 160.5,126.5C 160.167,126.5 159.833,126.5 159.5,126.5C 157.5,126.5 156.5,127.5 156.5,129.5C 156.167,129.5 155.833,129.5 155.5,129.5C 153.5,129.5 152.5,130.5 152.5,132.5C 151.167,133.5 149.833,134.5 148.5,135.5C 148.565,135.062 148.399,134.728 148,134.5C 145.218,136.771 143.051,139.437 141.5,142.5C 140.167,143.167 139.167,144.167 138.5,145.5C 135.437,147.051 132.771,149.218 130.5,152C 130.728,152.399 131.062,152.565 131.5,152.5C 130.833,153.5 130.167,154.5 129.5,155.5C 127.5,155.5 126.5,156.5 126.5,158.5C 126.5,158.833 126.5,159.167 126.5,159.5C 124.5,159.5 123.5,160.5 123.5,162.5C 123.167,163.167 122.833,163.833 122.5,164.5C 121.761,164.369 121.094,164.536 120.5,165C 119.262,165.69 119.262,166.19 120.5,166.5C 120.167,167.167 119.833,167.833 119.5,168.5C 117.554,169.035 116.554,170.368 116.5,172.5C 116.5,172.833 116.5,173.167 116.5,173.5C 114.554,174.035 113.554,175.368 113.5,177.5C 113.5,177.833 113.5,178.167 113.5,178.5C 111.807,179.475 110.307,180.808 109,182.5C 108.308,183.437 108.475,184.103 109.5,184.5C 109.443,185.609 109.11,186.609 108.5,187.5C 103.895,193.383 100.895,200.049 99.5,207.5C 99.5,207.833 99.5,208.167 99.5,208.5C 94.8333,208.5 90.1667,208.5 85.5,208.5C 85.9526,204.307 87.1192,200.307 89,196.5C 92.8451,188.145 96.6784,179.812 100.5,171.5C 100.5,171.167 100.5,170.833 100.5,170.5C 104.3,168.247 106.633,164.913 107.5,160.5C 107.5,160.167 107.5,159.833 107.5,159.5C 109.371,159.141 110.871,158.141 112,156.5C 114.157,154.183 115.657,151.516 116.5,148.5C 116.5,148.167 116.5,147.833 116.5,147.5C 118.833,147.167 120.167,145.833 120.5,143.5C 120.833,142.833 121.167,142.167 121.5,141.5C 128.167,136.833 133.833,131.167 138.5,124.5C 139.5,123.833 140.5,123.167 141.5,122.5C 143.833,122.167 145.167,120.833 145.5,118.5C 145.833,118.5 146.167,118.5 146.5,118.5C 148.5,118.5 149.5,117.5 149.5,115.5C 150.167,115.167 150.833,114.833 151.5,114.5C 154.367,114.631 156.033,113.297 156.5,110.5C 156.833,110.5 157.167,110.5 157.5,110.5C 163.09,107.884 168.09,104.551 172.5,100.5C 172.833,100.5 173.167,100.5 173.5,100.5C 243.285,67.0977 310.285,71.7644 374.5,114.5 Z"/></g>
<g><path style="opacity:0.22" fill="#4f5c7d" d="M 374.5,114.5 C 310.285,71.7644 243.285,67.0977 173.5,100.5C 195.403,87.9315 219.07,80.4315 244.5,78C 283.056,74.4445 319.389,81.7778 353.5,100C 360.954,104.306 367.954,109.14 374.5,114.5 Z"/></g>
<g><path style="opacity:0.333" fill="#475271" d="M 361.5,123.5 C 309.504,89.9768 254.504,84.1435 196.5,106C 188.316,109.924 180.316,114.091 172.5,118.5C 172.414,117.504 172.748,116.671 173.5,116C 180.374,112.063 187.374,108.397 194.5,105C 252.519,83.0952 307.852,88.4286 360.5,121C 361.252,121.671 361.586,122.504 361.5,123.5 Z"/></g>
<g><path style="opacity:0.576" fill="#525c7b" d="M 172.5,100.5 C 168.09,104.551 163.09,107.884 157.5,110.5C 161.933,106.416 166.933,103.082 172.5,100.5 Z"/></g>
<g><path style="opacity:0.91" fill="#8e96ac" d="M 156.5,110.5 C 156.033,113.297 154.367,114.631 151.5,114.5C 152.945,112.937 154.611,111.604 156.5,110.5 Z"/></g>
<g><path style="opacity:0.333" fill="#525e7d" d="M 375.5,114.5 C 376.833,115.167 377.833,116.167 378.5,117.5C 376.5,117.5 375.5,116.5 375.5,114.5 Z"/></g>
<g><path style="opacity:0.757" fill="#6f7894" d="M 149.5,115.5 C 149.5,117.5 148.5,118.5 146.5,118.5C 147.167,117.167 148.167,116.167 149.5,115.5 Z"/></g>
<g><path style="opacity:0.682" fill="#505a78" d="M 379.5,117.5 C 381.167,118.5 382.5,119.833 383.5,121.5C 383.565,121.938 383.399,122.272 383,122.5C 381.198,121.211 380.031,119.544 379.5,117.5 Z"/></g>
<g><path style="opacity:0.718" fill="#5e6784" d="M 145.5,118.5 C 145.167,120.833 143.833,122.167 141.5,122.5C 142.5,120.833 143.833,119.5 145.5,118.5 Z"/></g>
<g><path style="opacity:0.22" fill="#4a5675" d="M 171.5,118.5 C 170.564,119.974 169.23,120.974 167.5,121.5C 168.035,119.554 169.368,118.554 171.5,118.5 Z"/></g>
<g><path style="opacity:0.22" fill="#475372" d="M 166.5,121.5 C 166.167,122.5 165.5,123.167 164.5,123.5C 164.5,122.167 165.167,121.5 166.5,121.5 Z"/></g>
<g><path style="opacity:0.22" fill="#4d5877" d="M 163.5,123.5 C 162.833,124.833 161.833,125.833 160.5,126.5C 160.5,124.5 161.5,123.5 163.5,123.5 Z"/></g>
<g><path style="opacity:0.22" fill="#464f6e" d="M 362.5,123.5 C 364.5,123.5 365.5,124.5 365.5,126.5C 364.167,125.833 363.167,124.833 362.5,123.5 Z"/></g>
<g><path style="opacity:0.694" fill="#4f5977" d="M 385.5,122.5 C 388.5,124.833 391.167,127.5 393.5,130.5C 393.5,130.833 393.5,131.167 393.5,131.5C 390.097,129.1 387.43,126.1 385.5,122.5 Z"/></g>
<g><path style="opacity:0.22" fill="#4c5575" d="M 159.5,126.5 C 158.833,127.833 157.833,128.833 156.5,129.5C 156.5,127.5 157.5,126.5 159.5,126.5 Z"/></g>
<g><path style="opacity:0.22" fill="#424b6a" d="M 366.5,126.5 C 368.5,126.5 369.5,127.5 369.5,129.5C 368.167,128.833 367.167,127.833 366.5,126.5 Z"/></g>
<g><path style="opacity:0.22" fill="#485272" d="M 155.5,129.5 C 154.833,130.833 153.833,131.833 152.5,132.5C 152.5,130.5 153.5,129.5 155.5,129.5 Z"/></g>
<g><path style="opacity:0.773" fill="#bcc1ce" d="M 393.5,130.5 C 396.5,132.833 399.167,135.5 401.5,138.5C 401.167,138.5 400.833,138.5 400.5,138.5C 397.833,136.5 395.5,134.167 393.5,131.5C 393.5,131.167 393.5,130.833 393.5,130.5 Z"/></g>
<g><path style="opacity:0.773" fill="#888fa8" d="M 370.5,129.5 C 374.332,130.655 377.332,132.988 379.5,136.5C 379.167,136.5 378.833,136.5 378.5,136.5C 375.808,134.138 373.141,131.804 370.5,129.5 Z"/></g>
<g><path style="opacity:0.745" fill="#656d89" d="M 138.5,124.5 C 133.833,131.167 128.167,136.833 121.5,141.5C 126.833,135.5 132.5,129.833 138.5,124.5 Z"/></g>
<g><path style="opacity:0.333" fill="#3d4765" d="M 378.5,136.5 C 378.833,136.5 379.167,136.5 379.5,136.5C 381.587,137.585 382.92,139.251 383.5,141.5C 381.5,140.167 379.833,138.5 378.5,136.5 Z"/></g>
<g><path style="opacity:0.333" fill="#4b5373" d="M 148.5,135.5 C 146.5,138.167 144.167,140.5 141.5,142.5C 143.051,139.437 145.218,136.771 148,134.5C 148.399,134.728 148.565,135.062 148.5,135.5 Z"/></g>
<g><path style="opacity:0.682" fill="#4e5775" d="M 400.5,138.5 C 400.833,138.5 401.167,138.5 401.5,138.5C 403.167,139.5 404.5,140.833 405.5,142.5C 403.251,141.92 401.585,140.587 400.5,138.5 Z"/></g>
<g><path style="opacity:0.678" fill="#464f6c" d="M 120.5,143.5 C 120.167,145.833 118.833,147.167 116.5,147.5C 117.5,145.833 118.833,144.5 120.5,143.5 Z"/></g>
<g><path style="opacity:0.333" fill="#4a5270" d="M 405.5,143.5 C 407.5,144.833 409.167,146.5 410.5,148.5C 407.833,147.833 406.167,146.167 405.5,143.5 Z"/></g>
<g><path style="opacity:0.333" fill="#5e6583" d="M 138.5,145.5 C 136.5,148.167 134.167,150.5 131.5,152.5C 131.062,152.565 130.728,152.399 130.5,152C 132.771,149.218 135.437,147.051 138.5,145.5 Z"/></g>
<g><path style="opacity:0.333" fill="#656c89" d="M 389.5,147.5 C 392.563,149.051 395.229,151.218 397.5,154C 397.272,154.399 396.938,154.565 396.5,154.5C 393.833,152.5 391.5,150.167 389.5,147.5 Z"/></g>
<g><path style="opacity:0.22" fill="#495271" d="M 410.5,149.5 C 411.833,150.167 412.833,151.167 413.5,152.5C 411.5,152.5 410.5,151.5 410.5,149.5 Z"/></g>
<g><path style="opacity:0.82" fill="#8388a0" d="M 116.5,148.5 C 115.657,151.516 114.157,154.183 112,156.5C 110.871,158.141 109.371,159.141 107.5,159.5C 110.152,155.518 113.152,151.851 116.5,148.5 Z"/></g>
<g><path style="opacity:0.22" fill="#4e5675" d="M 413.5,153.5 C 414.833,154.167 415.833,155.167 416.5,156.5C 414.5,156.5 413.5,155.5 413.5,153.5 Z"/></g>
<g><path style="opacity:0.333" fill="#596182" d="M 129.5,155.5 C 128.833,156.833 127.833,157.833 126.5,158.5C 126.5,156.5 127.5,155.5 129.5,155.5 Z"/></g>
<g><path style="opacity:0.333" fill="#6a708f" d="M 397.5,156.5 C 399.5,156.5 400.5,157.5 400.5,159.5C 399.167,158.833 398.167,157.833 397.5,156.5 Z"/></g>
<g><path style="opacity:0.22" fill="#4c5372" d="M 416.5,157.5 C 418.975,159.77 420.975,162.437 422.5,165.5C 419.551,163.627 417.551,160.961 416.5,157.5 Z"/></g>
<g><path style="opacity:0.333" fill="#555d7d" d="M 126.5,159.5 C 125.833,160.833 124.833,161.833 123.5,162.5C 123.5,160.5 124.5,159.5 126.5,159.5 Z"/></g>
<g><path style="opacity:0.894" fill="#7a7f97" d="M 107.5,160.5 C 106.633,164.913 104.3,168.247 100.5,170.5C 102.354,166.779 104.687,163.446 107.5,160.5 Z"/></g>
<g><path style="opacity:0.333" fill="#646b89" d="M 400.5,160.5 C 402.5,160.5 403.5,161.5 403.5,163.5C 402.167,162.833 401.167,161.833 400.5,160.5 Z"/></g>
<g><path style="opacity:0.333" fill="#686e8c" d="M 122.5,164.5 C 122.167,165.5 121.5,166.167 120.5,166.5C 119.262,166.19 119.262,165.69 120.5,165C 121.094,164.536 121.761,164.369 122.5,164.5 Z"/></g>
<g><path style="opacity:0.333" fill="#5d6383" d="M 403.5,164.5 C 405.5,164.5 406.5,165.5 406.5,167.5C 405.167,166.833 404.167,165.833 403.5,164.5 Z"/></g>
<g><path style="opacity:0.584" fill="#565d7a" d="M 406.5,168.5 C 409.353,169.833 411.019,172.166 411.5,175.5C 409.478,173.469 407.811,171.135 406.5,168.5 Z"/></g>
<g><path style="opacity:0.22" fill="#515777" d="M 119.5,168.5 C 118.974,170.23 117.974,171.564 116.5,172.5C 116.554,170.368 117.554,169.035 119.5,168.5 Z"/></g>
<g><path style="opacity:0.576" fill="#525978" d="M 422.5,166.5 C 425.231,168.946 427.231,171.946 428.5,175.5C 427.624,175.631 426.957,175.298 426.5,174.5C 424.703,172.045 423.37,169.378 422.5,166.5 Z"/></g>
<g><path style="opacity:0.22" fill="#4f5676" d="M 116.5,173.5 C 115.974,175.23 114.974,176.564 113.5,177.5C 113.554,175.368 114.554,174.035 116.5,173.5 Z"/></g>
<g><path style="opacity:0.22" fill="#5b6180" d="M 411.5,176.5 C 413.446,177.035 414.446,178.368 414.5,180.5C 413.026,179.564 412.026,178.23 411.5,176.5 Z"/></g>
<g><path style="opacity:0.745" fill="#8b8fa6" d="M 113.5,178.5 C 112.525,180.795 111.192,182.795 109.5,184.5C 108.475,184.103 108.308,183.437 109,182.5C 110.307,180.808 111.807,179.475 113.5,178.5 Z"/></g>
<g><path style="opacity:0.443" fill="#4f5573" d="M 432.5,184.5 C 436.489,191.607 439.823,199.107 442.5,207C 442.241,208.261 441.574,209.261 440.5,210C 436.5,210.667 432.5,210.667 428.5,210C 427.944,209.617 427.611,209.117 427.5,208.5C 431.833,208.5 436.167,208.5 440.5,208.5C 438.769,200.201 435.769,192.368 431.5,185C 431.728,184.601 432.062,184.435 432.5,184.5 Z"/></g>
<g><path style="opacity:0.443" fill="#575c7a" d="M 414.5,181.5 C 415.376,181.369 416.043,181.702 416.5,182.5C 420.754,190.998 424.421,199.665 427.5,208.5C 422.944,199.718 418.61,190.718 414.5,181.5 Z"/></g>
<g><path style="opacity:0.443" fill="#4a506f" d="M 100.5,171.5 C 96.6784,179.812 92.8451,188.145 89,196.5C 87.1192,200.307 85.9526,204.307 85.5,208.5C 90.1667,208.5 94.8333,208.5 99.5,208.5C 99.3893,209.117 99.056,209.617 98.5,210C 94.1667,210.667 89.8333,210.667 85.5,210C 84.6433,209.311 83.9767,208.478 83.5,207.5C 87.5928,194.652 93.2595,182.652 100.5,171.5 Z"/></g>
<g><path style="opacity:0.333" fill="#585d7c" d="M 108.5,187.5 C 105.482,194.244 102.482,200.911 99.5,207.5C 100.895,200.049 103.895,193.383 108.5,187.5 Z"/></g>
<g><path style="opacity:0.502" fill="#374462" d="M 88.5,227.5 C 89.1465,225.844 89.8131,224.177 90.5,222.5C 90.4712,220.971 89.8045,219.804 88.5,219C 60.1686,218.5 31.8353,218.333 3.5,218.5C 3.91753,217.778 4.5842,217.278 5.5,217C 32.8333,216.333 60.1667,216.333 87.5,217C 91.2127,218.691 92.3794,221.525 91,225.5C 90.2917,226.381 89.4584,227.047 88.5,227.5 Z"/></g>
<g><path style="opacity:0.5" fill="#364362" d="M 400.5,217.5 C 400.5,217.833 400.5,218.167 400.5,218.5C 379.497,218.333 358.497,218.5 337.5,219C 336.934,219.995 336.267,220.828 335.5,221.5C 335.167,221.5 334.833,221.5 334.5,221.5C 334.916,219.248 336.249,217.748 338.5,217C 359.337,216.171 380.004,216.337 400.5,217.5 Z"/></g>
<g><path style="opacity:0.331" fill="#546281" d="M 111.5,220.5 C 111.565,220.938 111.399,221.272 111,221.5C 109.152,218.959 106.652,217.959 103.5,218.5C 106.675,216.046 109.341,216.713 111.5,220.5 Z"/></g>
<g><path style="opacity:1" fill="#fcfdfd" d="M 3.5,218.5 C 31.8353,218.333 60.1686,218.5 88.5,219C 89.8045,219.804 90.4712,220.971 90.5,222.5C 89.8131,224.177 89.1465,225.844 88.5,227.5C 88.1667,227.5 87.8333,227.5 87.5,227.5C 59.6697,226.668 31.6697,226.168 3.5,226C 2.57692,223.959 2.24358,221.792 2.5,219.5C 2.5,218.833 2.83333,218.5 3.5,218.5 Z"/></g>
<g><path style="opacity:1" fill="#fafafc" d="M 103.5,218.5 C 106.652,217.959 109.152,218.959 111,221.5C 111.399,221.272 111.565,220.938 111.5,220.5C 112.167,220.5 112.5,220.833 112.5,221.5C 112.859,223.371 113.859,224.871 115.5,226C 128.012,237.18 140.512,248.346 153,259.5C 164.318,250.015 175.152,240.015 185.5,229.5C 188.573,227.431 190.906,224.764 192.5,221.5C 193.5,220.833 194.5,220.167 195.5,219.5C 195.435,219.938 195.601,220.272 196,220.5C 198.333,217.833 200.667,217.833 203,220.5C 203.667,250.833 203.667,281.167 203,311.5C 200.667,314.167 198.333,314.167 196,311.5C 195.833,285.494 195.333,259.494 194.5,233.5C 187.458,238.542 181.458,244.542 176.5,251.5C 175.833,251.833 175.167,252.167 174.5,252.5C 174.565,252.062 174.399,251.728 174,251.5C 169.896,255.095 166.396,259.095 163.5,263.5C 162.167,264.5 160.833,265.5 159.5,266.5C 159.565,266.062 159.399,265.728 159,265.5C 157.093,269.01 154.26,270.176 150.5,269C 139.963,258.961 129.297,249.127 118.5,239.5C 116.186,237.523 113.853,235.523 111.5,233.5C 110.667,259.494 110.167,285.494 110,311.5C 109.329,312.252 108.496,312.586 107.5,312.5C 105.856,312.714 104.356,312.38 103,311.5C 102.5,280.835 102.333,250.168 102.5,219.5C 102.5,218.833 102.833,218.5 103.5,218.5 Z"/></g>
<g><path style="opacity:1" fill="#fbfbfc" d="M 280.5,218.5 C 288.891,219.384 295.391,223.384 300,230.5C 303.973,238.139 304.473,245.972 301.5,254C 301.728,254.399 302.062,254.565 302.5,254.5C 302.5,254.833 302.5,255.167 302.5,255.5C 300.184,256.422 298.517,258.089 297.5,260.5C 294.133,264.68 289.8,267.513 284.5,269C 264.5,269.333 244.5,269.667 224.5,270C 223.841,283.931 223.175,297.765 222.5,311.5C 220.621,310.659 218.621,310.325 216.5,310.5C 216.167,310.5 215.833,310.5 215.5,310.5C 215.333,280.498 215.5,250.498 216,220.5C 216.5,220 217,219.5 217.5,219C 238.497,218.5 259.497,218.333 280.5,218.5 Z M 292.5,236.5 C 292.5,236.833 292.5,237.167 292.5,237.5C 294.002,242.641 293.669,247.641 291.5,252.5C 291.5,252.833 291.5,253.167 291.5,253.5C 287.807,257.178 283.473,259.511 278.5,260.5C 260.833,260.5 243.167,260.5 225.5,260.5C 225.5,249.833 225.5,239.167 225.5,228.5C 244.503,228.333 263.503,228.5 282.5,229C 286.801,230.306 290.134,232.806 292.5,236.5 Z"/></g>
<g><path style="opacity:0.443" fill="#515c7b" d="M 280.5,218.5 C 280.5,218.167 280.5,217.833 280.5,217.5C 295.859,219.823 304.192,228.823 305.5,244.5C 305.408,248.224 304.408,251.558 302.5,254.5C 302.062,254.565 301.728,254.399 301.5,254C 304.473,245.972 303.973,238.139 300,230.5C 295.391,223.384 288.891,219.384 280.5,218.5 Z"/></g>
<g><path style="opacity:1" fill="#fbfbfc" d="M 320.5,218.5 C 321.458,218.953 322.292,219.619 323,220.5C 323.5,249.498 323.667,278.498 323.5,307.5C 320.904,306.735 318.237,306.401 315.5,306.5C 315.333,277.831 315.5,249.165 316,220.5C 317.11,218.963 318.61,218.297 320.5,218.5 Z"/></g>
<g><path style="opacity:1" fill="#f8f8fa" d="M 400.5,218.5 C 403.647,218.737 406.647,219.57 409.5,221C 412.72,223.437 416.053,225.603 419.5,227.5C 419.5,227.833 419.5,228.167 419.5,228.5C 420.628,231.438 421.795,234.438 423,237.5C 424.493,244.863 423.326,251.696 419.5,258C 419.728,258.399 420.062,258.565 420.5,258.5C 420.167,259.167 419.833,259.833 419.5,260.5C 416.833,261.167 415.167,262.833 414.5,265.5C 413.833,265.5 413.5,265.833 413.5,266.5C 412.352,265.105 411.352,265.272 410.5,267C 418.703,272.271 423.203,279.771 424,289.5C 424.667,296.5 424.667,303.5 424,310.5C 422.089,313.528 419.589,314.194 416.5,312.5C 415.536,305.254 415.203,297.92 415.5,290.5C 415.217,286.03 413.717,282.03 411,278.5C 407.592,275.547 404.092,272.713 400.5,270C 382.836,269.5 365.17,269.333 347.5,269.5C 346.5,269.5 345.5,269.5 344.5,269.5C 344.667,283.171 344.5,296.837 344,310.5C 342.192,312.396 340.025,312.896 337.5,312C 336.177,311.184 335.511,310.017 335.5,308.5C 335.5,300.167 335.5,291.833 335.5,283.5C 335.5,262.833 335.5,242.167 335.5,221.5C 336.267,220.828 336.934,219.995 337.5,219C 358.497,218.5 379.497,218.333 400.5,218.5 Z M 345.5,228.5 C 365.213,228.191 384.879,228.524 404.5,229.5C 404.833,229.5 405.167,229.5 405.5,229.5C 407.475,231.137 409.475,232.804 411.5,234.5C 411.5,234.833 411.5,235.167 411.5,235.5C 414.615,242.569 413.948,249.236 409.5,255.5C 406.369,257.732 403.036,259.399 399.5,260.5C 381.5,260.5 363.5,260.5 345.5,260.5C 345.5,249.833 345.5,239.167 345.5,228.5 Z"/></g>
<g><path style="opacity:0.331" fill="#566485" d="M 400.5,218.5 C 400.5,218.167 400.5,217.833 400.5,217.5C 408.409,217.953 414.742,221.287 419.5,227.5C 416.053,225.603 412.72,223.437 409.5,221C 406.647,219.57 403.647,218.737 400.5,218.5 Z"/></g>
<g><path style="opacity:1" fill="#fcfcfd" d="M 444.5,226.5 C 443.505,237.988 443.172,249.655 443.5,261.5C 469.167,261.5 494.833,261.5 520.5,261.5C 523.973,263.563 524.306,266.063 521.5,269C 495.663,269.168 469.997,269.668 444.5,270.5C 443.171,281.902 443.171,293.402 444.5,305C 469.831,305.5 495.164,305.667 520.5,305.5C 522.722,305.559 523.722,306.725 523.5,309C 523.722,311.275 522.722,312.441 520.5,312.5C 492.593,312.828 464.759,312.495 437,311.5C 436.5,281.502 436.333,251.502 436.5,221.5C 436.577,220.25 437.244,219.417 438.5,219C 466.167,218.333 493.833,218.333 521.5,219C 524.167,221.333 524.167,223.667 521.5,226C 495.835,226.5 470.169,226.667 444.5,226.5 Z"/></g>
<g><path style="opacity:0.667" fill="#3c4767" d="M 192.5,221.5 C 190.906,224.764 188.573,227.431 185.5,229.5C 185.5,229.167 185.5,228.833 185.5,228.5C 187.5,225.833 189.833,223.5 192.5,221.5 Z"/></g>
<g><path style="opacity:0.686" fill="#656c8b" d="M 292.5,236.5 C 290.134,232.806 286.801,230.306 282.5,229C 263.503,228.5 244.503,228.333 225.5,228.5C 225.5,239.167 225.5,249.833 225.5,260.5C 243.167,260.5 260.833,260.5 278.5,260.5C 278.5,260.833 278.5,261.167 278.5,261.5C 260.164,261.667 241.83,261.5 223.5,261C 223.381,250.038 223.547,238.871 224,227.5C 243.427,226.341 262.927,226.174 282.5,227C 287.978,228.652 291.311,231.819 292.5,236.5 Z"/></g>
<g><path style="opacity:0.5" fill="#424e6e" d="M 344.5,227.5 C 363.662,226.338 382.996,226.171 402.5,227C 403.756,227.417 404.423,228.25 404.5,229.5C 384.879,228.524 365.213,228.191 345.5,228.5C 345.5,227.833 345.167,227.5 344.5,227.5 Z"/></g>
<g><path style="opacity:0.501" fill="#3d4a69" d="M 445.5,228.5 C 445.167,227.833 444.833,227.167 444.5,226.5C 470.169,226.667 495.835,226.5 521.5,226C 524.167,223.667 524.167,221.333 521.5,219C 493.833,218.333 466.167,218.333 438.5,219C 437.244,219.417 436.577,220.25 436.5,221.5C 435.833,221.5 435.167,221.5 434.5,221.5C 434.916,219.248 436.249,217.748 438.5,217C 466.895,216.025 495.228,216.358 523.5,218C 526.501,222.003 525.835,225.336 521.5,228C 496.169,228.5 470.836,228.667 445.5,228.5 Z"/></g>
<g><path style="opacity:0.333" fill="#4b5774" d="M 2.5,219.5 C 2.24358,221.792 2.57692,223.959 3.5,226C 31.6697,226.168 59.6697,226.668 87.5,227.5C 60.003,228.664 32.3364,228.83 4.5,228C 0.389982,225.742 -0.276684,222.908 2.5,219.5 Z"/></g>
<g><path style="opacity:0.333" fill="#646d8a" d="M 411.5,234.5 C 409.475,232.804 407.475,231.137 405.5,229.5C 405.897,228.475 406.563,228.308 407.5,229C 409.167,230.667 410.833,232.333 412.5,234C 412.272,234.399 411.938,234.565 411.5,234.5 Z"/></g>
<g><path style="opacity:0.22" fill="#575e7e" d="M 419.5,228.5 C 425.511,235.487 427.011,243.487 424,252.5C 423.576,255.025 422.41,257.025 420.5,258.5C 420.062,258.565 419.728,258.399 419.5,258C 423.326,251.696 424.493,244.863 423,237.5C 421.795,234.438 420.628,231.438 419.5,228.5 Z"/></g>
<g><path style="opacity:0.667" fill="#5a6180" d="M 112.5,221.5 C 126.141,233.305 139.641,245.305 153,257.5C 163.99,248.01 174.824,238.343 185.5,228.5C 185.5,228.833 185.5,229.167 185.5,229.5C 175.152,240.015 164.318,250.015 153,259.5C 140.512,248.346 128.012,237.18 115.5,226C 113.859,224.871 112.859,223.371 112.5,221.5 Z"/></g>
<g><path style="opacity:0.463" fill="#3a415e" d="M 280.5,217.5 C 280.5,217.833 280.5,218.167 280.5,218.5C 259.497,218.333 238.497,218.5 217.5,219C 217,219.5 216.5,220 216,220.5C 215.5,250.498 215.333,280.498 215.5,310.5C 215.167,310.5 214.833,310.5 214.5,310.5C 213.833,295.837 213.5,281.004 213.5,266C 213.348,250.411 213.848,234.911 215,219.5C 215.903,218.299 217.069,217.465 218.5,217C 239.337,216.171 260.004,216.337 280.5,217.5 Z"/></g>
<g><path style="opacity:0.333" fill="#616885" d="M 292.5,237.5 C 294.931,238.607 295.931,240.607 295.5,243.5C 295.406,245.923 294.906,248.256 294,250.5C 293.583,251.756 292.75,252.423 291.5,252.5C 293.669,247.641 294.002,242.641 292.5,237.5 Z"/></g>
<g><path style="opacity:0.333" fill="#565978" d="M 118.5,239.5 C 129.297,249.127 139.963,258.961 150.5,269C 154.26,270.176 157.093,269.01 159,265.5C 159.399,265.728 159.565,266.062 159.5,266.5C 157.695,270.487 154.695,271.987 150.5,271C 139.963,260.961 129.297,251.127 118.5,241.5C 118.5,240.833 118.5,240.167 118.5,239.5 Z"/></g>
<g><path style="opacity:0.461" fill="#595978" d="M 176.5,251.5 C 181.458,244.542 187.458,238.542 194.5,233.5C 195.333,259.494 195.833,285.494 196,311.5C 198.333,314.167 200.667,314.167 203,311.5C 203.667,281.167 203.667,250.833 203,220.5C 200.667,217.833 198.333,217.833 196,220.5C 195.601,220.272 195.435,219.938 195.5,219.5C 199.287,215.593 202.454,216.26 205,221.5C 205.984,251.919 205.651,282.253 204,312.5C 200.381,315.343 197.048,315.01 194,311.5C 193.667,286.5 193.333,261.5 193,236.5C 187.33,241.337 181.83,246.337 176.5,251.5 Z"/></g>
<g><path style="opacity:0.443" fill="#4d5372" d="M 411.5,235.5 C 412.496,235.414 413.329,235.748 414,236.5C 416.169,242.314 415.835,247.981 413,253.5C 412.184,254.823 411.017,255.489 409.5,255.5C 413.948,249.236 414.615,242.569 411.5,235.5 Z"/></g>
<g><path style="opacity:0.333" fill="#7b7ca0" d="M 334.5,221.5 C 334.833,221.5 335.167,221.5 335.5,221.5C 335.5,242.167 335.5,262.833 335.5,283.5C 334.833,283.5 334.5,283.167 334.5,282.5C 334.47,262.375 334.47,242.042 334.5,221.5 Z"/></g>
<g><path style="opacity:0.706" fill="#a2a3b8" d="M 302.5,255.5 C 301.752,257.332 300.752,258.999 299.5,260.5C 298.833,260.5 298.167,260.5 297.5,260.5C 298.517,258.089 300.184,256.422 302.5,255.5 Z"/></g>
<g><path style="opacity:0.678" fill="#565979" d="M 291.5,253.5 C 288.895,258.728 284.561,261.395 278.5,261.5C 278.5,261.167 278.5,260.833 278.5,260.5C 283.473,259.511 287.807,257.178 291.5,253.5 Z"/></g>
<g><path style="opacity:0.443" fill="#545775" d="M 409.5,255.5 C 409.489,257.017 408.823,258.184 407.5,259C 404.978,260.341 402.311,261.174 399.5,261.5C 399.5,261.167 399.5,260.833 399.5,260.5C 403.036,259.399 406.369,257.732 409.5,255.5 Z"/></g>
<g><path style="opacity:0.333" fill="#958fb5" d="M 5.5,261.5 C 5.5,261.167 5.5,260.833 5.5,260.5C 33.3384,260.169 61.005,260.502 88.5,261.5C 61.139,261.516 33.4724,261.516 5.5,261.5 Z"/></g>
<g><path style="opacity:0.491" fill="#40425f" d="M 118.5,239.5 C 118.5,240.167 118.5,240.833 118.5,241.5C 116.537,240.04 114.704,238.373 113,236.5C 112.667,261.167 112.333,285.833 112,310.5C 111.252,312.751 109.752,314.084 107.5,314.5C 107.5,313.833 107.5,313.167 107.5,312.5C 108.496,312.586 109.329,312.252 110,311.5C 110.167,285.494 110.667,259.494 111.5,233.5C 113.853,235.523 116.186,237.523 118.5,239.5 Z"/></g>
<g><path style="opacity:0.5" fill="#404260" d="M 320.5,217.5 C 320.5,217.833 320.5,218.167 320.5,218.5C 318.61,218.297 317.11,218.963 316,220.5C 315.5,249.165 315.333,277.831 315.5,306.5C 315.366,308.292 315.699,309.958 316.5,311.5C 316.5,312.167 316.5,312.833 316.5,313.5C 315.21,312.942 314.377,311.942 314,310.5C 313.333,280.833 313.333,251.167 314,221.5C 315.314,218.112 317.48,216.779 320.5,217.5 Z"/></g>
<g><path style="opacity:0.333" fill="#8c89af" d="M 344.5,227.5 C 345.167,227.5 345.5,227.833 345.5,228.5C 345.5,239.167 345.5,249.833 345.5,260.5C 363.5,260.5 381.5,260.5 399.5,260.5C 399.5,260.833 399.5,261.167 399.5,261.5C 381.167,261.5 362.833,261.5 344.5,261.5C 344.5,250.167 344.5,238.833 344.5,227.5 Z"/></g>
<g><path style="opacity:0.333" fill="#9491b4" d="M 444.5,226.5 C 444.833,227.167 445.167,227.833 445.5,228.5C 445.5,239.167 445.5,249.833 445.5,260.5C 470.5,260.5 495.5,260.5 520.5,260.5C 520.5,260.833 520.5,261.167 520.5,261.5C 494.833,261.5 469.167,261.5 443.5,261.5C 443.172,249.655 443.505,237.988 444.5,226.5 Z"/></g>
<g><path style="opacity:0.333" fill="#4f5372" d="M 174.5,252.5 C 171.167,256.5 167.5,260.167 163.5,263.5C 166.396,259.095 169.896,255.095 174,251.5C 174.399,251.728 174.565,252.062 174.5,252.5 Z"/></g>
<g><path style="opacity:1" fill="#fcfcfd" d="M 5.5,261.5 C 33.4724,261.516 61.139,261.516 88.5,261.5C 89.5,261.833 90.1667,262.5 90.5,263.5C 90.822,265.722 90.1554,267.556 88.5,269C 59.4702,269.809 30.4702,269.642 1.5,268.5C 1.5,268.167 1.5,267.833 1.5,267.5C 1.97675,264.975 3.31008,262.975 5.5,261.5 Z"/></g>
<g><path style="opacity:0.333" fill="#545575" d="M 419.5,260.5 C 418.167,262.5 416.5,264.167 414.5,265.5C 415.167,262.833 416.833,261.167 419.5,260.5 Z"/></g>
<g><path style="opacity:0.5" fill="#555574" d="M 102.5,219.5 C 102.333,250.168 102.5,280.835 103,311.5C 104.356,312.38 105.856,312.714 107.5,312.5C 107.5,313.167 107.5,313.833 107.5,314.5C 104.675,314.919 102.509,313.919 101,311.5C 100.333,281.167 100.333,250.833 101,220.5C 101.383,219.944 101.883,219.611 102.5,219.5 Z"/></g>
<g><path style="opacity:0.22" fill="#4d4f6d" d="M 5.5,260.5 C 5.5,260.833 5.5,261.167 5.5,261.5C 3.31008,262.975 1.97675,264.975 1.5,267.5C 0.0608298,263.878 1.39416,261.544 5.5,260.5 Z"/></g>
<g><path style="opacity:0.427" fill="#696686" d="M 347.5,269.5 C 365.17,269.333 382.836,269.5 400.5,270C 404.092,272.713 407.592,275.547 411,278.5C 413.717,282.03 415.217,286.03 415.5,290.5C 414.833,289.833 414.167,289.167 413.5,288.5C 412.104,280.879 407.771,275.712 400.5,273C 382.222,271.553 363.889,271.053 345.5,271.5C 346.167,270.833 346.833,270.167 347.5,269.5 Z"/></g>
<g><path style="opacity:0.424" fill="#696585" d="M 520.5,261.5 C 520.5,261.167 520.5,260.833 520.5,260.5C 526.759,263.382 527.092,266.882 521.5,271C 496.169,271.5 470.836,271.667 445.5,271.5C 445.5,282.167 445.5,292.833 445.5,303.5C 444.505,292.679 444.172,281.679 444.5,270.5C 469.997,269.668 495.663,269.168 521.5,269C 524.306,266.063 523.973,263.563 520.5,261.5 Z"/></g>
<g><path style="opacity:0.333" fill="#757390" d="M 90.5,263.5 C 92.0743,266.43 91.4076,268.93 88.5,271C 60.5,271.667 32.5,271.667 4.5,271C 3.05773,270.623 2.05773,269.79 1.5,268.5C 30.4702,269.642 59.4702,269.809 88.5,269C 90.1554,267.556 90.822,265.722 90.5,263.5 Z"/></g>
<g><path style="opacity:0.333" fill="#756f8f" d="M 320.5,218.5 C 320.5,218.167 320.5,217.833 320.5,217.5C 322.911,217.137 324.411,218.137 325,220.5C 325.667,250.833 325.667,281.167 325,311.5C 322.702,314.526 319.869,315.192 316.5,313.5C 316.5,312.833 316.5,312.167 316.5,311.5C 321.09,313.743 323.424,312.41 323.5,307.5C 323.667,278.498 323.5,249.498 323,220.5C 322.292,219.619 321.458,218.953 320.5,218.5 Z"/></g>
<g><path style="opacity:0.333" fill="#9e94b0" d="M 434.5,221.5 C 435.167,221.5 435.833,221.5 436.5,221.5C 436.333,251.502 436.5,281.502 437,311.5C 464.759,312.495 492.593,312.828 520.5,312.5C 493.833,313.167 467.167,313.833 440.5,314.5C 438.097,314.607 436.264,313.607 435,311.5C 434.5,281.502 434.333,251.502 434.5,221.5 Z"/></g>
<g><path style="opacity:0.383" fill="#2e314c" d="M 334.5,282.5 C 334.5,283.167 334.833,283.5 335.5,283.5C 335.5,291.833 335.5,300.167 335.5,308.5C 335.167,308.5 334.833,308.5 334.5,308.5C 333.167,299.833 333.167,291.167 334.5,282.5 Z"/></g>
<g><path style="opacity:0.439" fill="#3f3e5a" d="M 413.5,288.5 C 414.167,289.167 414.833,289.833 415.5,290.5C 415.203,297.92 415.536,305.254 416.5,312.5C 416.5,312.833 416.5,313.167 416.5,313.5C 415.034,312.653 414.2,311.32 414,309.5C 413.5,302.508 413.334,295.508 413.5,288.5 Z"/></g>
<g><path style="opacity:0.333" fill="#776f8c" d="M 297.5,260.5 C 298.167,260.5 298.833,260.5 299.5,260.5C 295.377,265.78 290.044,269.28 283.5,271C 264.17,271.5 244.836,271.667 225.5,271.5C 225.667,284.837 225.5,298.171 225,311.5C 222.321,314.835 219.155,315.335 215.5,313C 214.748,312.329 214.414,311.496 214.5,310.5C 214.833,310.5 215.167,310.5 215.5,310.5C 215.833,310.5 216.167,310.5 216.5,310.5C 217.134,311.947 218.301,312.613 220,312.5C 221.07,312.472 221.903,312.139 222.5,311.5C 223.175,297.765 223.841,283.931 224.5,270C 244.5,269.667 264.5,269.333 284.5,269C 289.8,267.513 294.133,264.68 297.5,260.5 Z"/></g>
<g><path style="opacity:0.333" fill="#8b789a" d="M 347.5,269.5 C 346.833,270.167 346.167,270.833 345.5,271.5C 345.667,284.837 345.5,298.171 345,311.5C 339.842,316.104 336.342,315.104 334.5,308.5C 334.833,308.5 335.167,308.5 335.5,308.5C 335.511,310.017 336.177,311.184 337.5,312C 340.025,312.896 342.192,312.396 344,310.5C 344.5,296.837 344.667,283.171 344.5,269.5C 345.5,269.5 346.5,269.5 347.5,269.5 Z"/></g>
<g><path style="opacity:0.333" fill="#ae96b4" d="M 5.5,304.5 C 5.5,304.167 5.5,303.833 5.5,303.5C 33.1687,303.333 60.8353,303.5 88.5,304C 93.1038,309.158 92.1038,312.658 85.5,314.5C 58.8333,313.833 32.1667,313.167 5.5,312.5C 33.1687,312.667 60.8353,312.5 88.5,312C 91.1924,309.368 90.859,307.034 87.5,305C 60.1687,304.5 32.8354,304.333 5.5,304.5 Z"/></g>
<g><path style="opacity:0.891" fill="#d1c2d4" d="M 444.5,270.5 C 444.172,281.679 444.505,292.679 445.5,303.5C 470.5,303.5 495.5,303.5 520.5,303.5C 520.5,304.167 520.5,304.833 520.5,305.5C 495.164,305.667 469.831,305.5 444.5,305C 443.171,293.402 443.171,281.902 444.5,270.5 Z"/></g>
<g><path style="opacity:0.667" fill="#4b4563" d="M 5.5,303.5 C 5.5,303.833 5.5,304.167 5.5,304.5C 3.30953,305.929 1.9762,307.929 1.5,310.5C 0.0608298,306.878 1.39416,304.544 5.5,303.5 Z"/></g>
<g><path style="opacity:1" fill="#fcfbfc" d="M 5.5,304.5 C 32.8354,304.333 60.1687,304.5 87.5,305C 90.859,307.034 91.1924,309.368 88.5,312C 60.8353,312.5 33.1687,312.667 5.5,312.5C 4.16667,312.167 2.83333,311.833 1.5,311.5C 1.5,311.167 1.5,310.833 1.5,310.5C 1.9762,307.929 3.30953,305.929 5.5,304.5 Z"/></g>
<g><path style="opacity:1" fill="#ebb9e1" d="M 315.5,306.5 C 318.237,306.401 320.904,306.735 323.5,307.5C 323.424,312.41 321.09,313.743 316.5,311.5C 315.699,309.958 315.366,308.292 315.5,306.5 Z"/></g>
<g><path style="opacity:1" fill="#ecb8e0" d="M 216.5,310.5 C 218.621,310.325 220.621,310.659 222.5,311.5C 221.903,312.139 221.07,312.472 220,312.5C 218.301,312.613 217.134,311.947 216.5,310.5 Z"/></g>
<g><path style="opacity:0.333" fill="#655b7a" d="M 413.5,266.5 C 419.611,271.796 423.444,278.463 425,286.5C 425.667,294.833 425.667,303.167 425,311.5C 422.702,314.526 419.869,315.192 416.5,313.5C 416.5,313.167 416.5,312.833 416.5,312.5C 419.589,314.194 422.089,313.528 424,310.5C 424.667,303.5 424.667,296.5 424,289.5C 423.203,279.771 418.703,272.271 410.5,267C 411.352,265.272 412.352,265.105 413.5,266.5 Z"/></g>
<g><path style="opacity:0.453" fill="#2f304b" d="M 1.5,311.5 C 2.83333,311.833 4.16667,312.167 5.5,312.5C 32.1667,313.167 58.8333,313.833 85.5,314.5C 59.3365,315.663 33.0032,315.83 6.5,315C 4.11917,314.777 2.4525,313.61 1.5,311.5 Z"/></g>
<g><path style="opacity:0.453" fill="#30314d" d="M 520.5,303.5 C 524.748,304.588 526.248,307.255 525,311.5C 523.681,313.487 521.848,314.654 519.5,315C 492.997,315.83 466.663,315.663 440.5,314.5C 467.167,313.833 493.833,313.167 520.5,312.5C 522.722,312.441 523.722,311.275 523.5,309C 523.722,306.725 522.722,305.559 520.5,305.5C 520.5,304.833 520.5,304.167 520.5,303.5 Z"/></g>
<g><path style="opacity:1" fill="#fbfafb" d="M 98.5,322.5 C 101.59,332.595 105.757,342.262 111,351.5C 112.487,354.859 114.654,357.525 117.5,359.5C 117.5,359.833 117.5,360.167 117.5,360.5C 119.728,364.612 122.228,368.612 125,372.5C 125.816,373.823 126.983,374.489 128.5,374.5C 128.5,374.833 128.5,375.167 128.5,375.5C 129.833,378.833 132.167,381.167 135.5,382.5C 135.833,383.167 136.167,383.833 136.5,384.5C 138.725,388.235 141.558,391.568 145,394.5C 145.399,394.272 145.565,393.938 145.5,393.5C 146.5,394.167 147.5,394.833 148.5,395.5C 149.203,397.716 150.536,399.549 152.5,401C 156.734,404.082 161.067,406.916 165.5,409.5C 165.833,409.5 166.167,409.5 166.5,409.5C 167.035,411.446 168.368,412.446 170.5,412.5C 170.833,412.5 171.167,412.5 171.5,412.5C 173.562,415.712 176.562,417.712 180.5,418.5C 180.833,418.5 181.167,418.5 181.5,418.5C 200.768,430.199 221.768,437.033 244.5,439C 268.642,441.34 292.309,439.006 315.5,432C 316.056,431.617 316.389,431.117 316.5,430.5C 316.833,430.5 317.167,430.5 317.5,430.5C 317.435,430.938 317.601,431.272 318,431.5C 320.438,430.432 322.605,429.098 324.5,427.5C 324.833,427.5 325.167,427.5 325.5,427.5C 325.435,427.938 325.601,428.272 326,428.5C 331.266,426.454 336.099,423.787 340.5,420.5C 342.05,419.559 343.716,418.893 345.5,418.5C 349.381,417.226 353.048,415.393 356.5,413C 358.063,412.241 359.063,411.074 359.5,409.5C 359.833,409.5 360.167,409.5 360.5,409.5C 364.774,407.881 368.107,405.214 370.5,401.5C 370.833,401.5 371.167,401.5 371.5,401.5C 374.167,400.833 375.833,399.167 376.5,396.5C 377.5,395.833 378.5,395.167 379.5,394.5C 379.435,394.938 379.601,395.272 380,395.5C 384.104,391.905 387.604,387.905 390.5,383.5C 390.5,383.167 390.5,382.833 390.5,382.5C 393.394,381.118 395.894,379.118 398,376.5C 410.864,360.279 421.031,342.446 428.5,323C 432.486,322.501 436.486,322.334 440.5,322.5C 438.199,331.445 435.032,340.112 431,348.5C 426.729,356.716 422.229,364.716 417.5,372.5C 417.5,372.833 417.5,373.167 417.5,373.5C 414.438,374.268 412.772,376.268 412.5,379.5C 412.5,379.833 412.5,380.167 412.5,380.5C 410.167,380.833 408.833,382.167 408.5,384.5C 408.5,384.833 408.5,385.167 408.5,385.5C 406.167,385.833 404.833,387.167 404.5,389.5C 403.833,390.5 403.167,391.5 402.5,392.5C 396.833,396.167 392.167,400.833 388.5,406.5C 388.167,406.5 387.833,406.5 387.5,406.5C 384.833,407.167 383.167,408.833 382.5,411.5C 381.833,411.833 381.167,412.167 380.5,412.5C 378.167,412.833 376.833,414.167 376.5,416.5C 376.167,416.5 375.833,416.5 375.5,416.5C 372.638,417.247 370.638,418.914 369.5,421.5C 369.167,421.5 368.833,421.5 368.5,421.5C 363.783,423.185 359.783,425.852 356.5,429.5C 356.167,429.5 355.833,429.5 355.5,429.5C 340.219,437.223 323.885,443.39 306.5,448C 259.249,458.346 214.582,452.513 172.5,430.5C 172.167,430.5 171.833,430.5 171.5,430.5C 170.267,428.204 168.267,426.87 165.5,426.5C 165.167,426.5 164.833,426.5 164.5,426.5C 164.063,424.926 163.063,423.759 161.5,423C 157.598,420.249 153.598,417.749 149.5,415.5C 149.167,415.5 148.833,415.5 148.5,415.5C 147.797,413.284 146.464,411.451 144.5,410C 142.266,408.25 139.932,406.75 137.5,405.5C 135.5,403.833 133.5,402.167 131.5,400.5C 131.5,398.5 130.5,397.5 128.5,397.5C 126.5,395.167 124.5,392.833 122.5,390.5C 122.938,390.565 123.272,390.399 123.5,390C 121.886,387.873 119.886,386.373 117.5,385.5C 117.5,385.167 117.5,384.833 117.5,384.5C 113.917,378.401 110.083,372.401 106,366.5C 105.184,365.177 104.017,364.511 102.5,364.5C 102.5,364.167 102.5,363.833 102.5,363.5C 98.0116,353.855 93.5116,344.188 89,334.5C 87.5226,330.57 86.3559,326.57 85.5,322.5C 89.8333,322.5 94.1667,322.5 98.5,322.5 Z"/></g>
<g><path style="opacity:0.333" fill="#645f7d" d="M 98.5,322.5 C 104.005,335.175 110.338,347.508 117.5,359.5C 114.654,357.525 112.487,354.859 111,351.5C 105.757,342.262 101.59,332.595 98.5,322.5 Z"/></g>
<g><path style="opacity:0.22" fill="#615e7a" d="M 98.5,322.5 C 94.1667,322.5 89.8333,322.5 85.5,322.5C 86.3559,326.57 87.5226,330.57 89,334.5C 93.5116,344.188 98.0116,353.855 102.5,363.5C 94.371,351.325 88.0376,338.159 83.5,324C 83.6448,323.228 83.9781,322.561 84.5,322C 89.3522,321.185 94.0189,321.352 98.5,322.5 Z"/></g>
<g><path style="opacity:0.588" fill="#605c79" d="M 417.5,372.5 C 422.229,364.716 426.729,356.716 431,348.5C 435.032,340.112 438.199,331.445 440.5,322.5C 436.486,322.334 432.486,322.501 428.5,323C 421.031,342.446 410.864,360.279 398,376.5C 395.894,379.118 393.394,381.118 390.5,382.5C 406.5,364.684 418.834,344.517 427.5,322C 432.167,321.333 436.833,321.333 441.5,322C 442.022,322.561 442.355,323.228 442.5,324C 436.885,341.734 428.552,357.9 417.5,372.5 Z"/></g>
<g><path style="opacity:0.584" fill="#635e7b" d="M 117.5,360.5 C 121.156,365.128 124.822,369.794 128.5,374.5C 126.983,374.489 125.816,373.823 125,372.5C 122.228,368.612 119.728,364.612 117.5,360.5 Z"/></g>
<g><path style="opacity:0.62" fill="#79748d" d="M 102.5,364.5 C 104.017,364.511 105.184,365.177 106,366.5C 110.083,372.401 113.917,378.401 117.5,384.5C 111.762,378.423 106.762,371.756 102.5,364.5 Z"/></g>
<g><path style="opacity:0.333" fill="#89819b" d="M 417.5,373.5 C 416.299,375.909 414.633,377.909 412.5,379.5C 412.772,376.268 414.438,374.268 417.5,373.5 Z"/></g>
<g><path style="opacity:0.714" fill="#66627c" d="M 128.5,375.5 C 131.167,377.5 133.5,379.833 135.5,382.5C 132.167,381.167 129.833,378.833 128.5,375.5 Z"/></g>
<g><path style="opacity:0.333" fill="#716a87" d="M 412.5,380.5 C 411.5,382.167 410.167,383.5 408.5,384.5C 408.833,382.167 410.167,380.833 412.5,380.5 Z"/></g>
<g><path style="opacity:0.333" fill="#736d88" d="M 408.5,385.5 C 407.5,387.167 406.167,388.5 404.5,389.5C 404.833,387.167 406.167,385.833 408.5,385.5 Z"/></g>
<g><path style="opacity:0.333" fill="#78718c" d="M 117.5,385.5 C 119.886,386.373 121.886,387.873 123.5,390C 123.272,390.399 122.938,390.565 122.5,390.5C 120.5,389.167 118.833,387.5 117.5,385.5 Z"/></g>
<g><path style="opacity:0.722" fill="#807993" d="M 136.5,384.5 C 139.833,387.167 142.833,390.167 145.5,393.5C 145.565,393.938 145.399,394.272 145,394.5C 141.558,391.568 138.725,388.235 136.5,384.5 Z"/></g>
<g><path style="opacity:0.729" fill="#746f88" d="M 390.5,383.5 C 387.604,387.905 384.104,391.905 380,395.5C 379.601,395.272 379.435,394.938 379.5,394.5C 382.833,390.5 386.5,386.833 390.5,383.5 Z"/></g>
<g><path style="opacity:0.557" fill="#43425e" d="M 128.5,397.5 C 130.5,397.5 131.5,398.5 131.5,400.5C 130.167,399.833 129.167,398.833 128.5,397.5 Z"/></g>
<g><path style="opacity:0.686" fill="#53506b" d="M 376.5,396.5 C 375.833,399.167 374.167,400.833 371.5,401.5C 372.833,399.5 374.5,397.833 376.5,396.5 Z"/></g>
<g><path style="opacity:0.333" fill="#4b4965" d="M 402.5,392.5 C 398.167,397.5 393.5,402.167 388.5,406.5C 392.167,400.833 396.833,396.167 402.5,392.5 Z"/></g>
<g><path style="opacity:0.333" fill="#67607c" d="M 148.5,395.5 C 154.191,400.197 159.858,404.863 165.5,409.5C 161.067,406.916 156.734,404.082 152.5,401C 150.536,399.549 149.203,397.716 148.5,395.5 Z"/></g>
<g><path style="opacity:0.702" fill="#5c5872" d="M 370.5,401.5 C 368.107,405.214 364.774,407.881 360.5,409.5C 363.52,406.484 366.854,403.817 370.5,401.5 Z"/></g>
<g><path style="opacity:0.333" fill="#5f5774" d="M 387.5,406.5 C 386.167,408.5 384.5,410.167 382.5,411.5C 383.167,408.833 384.833,407.167 387.5,406.5 Z"/></g>
<g><path style="opacity:0.22" fill="#615976" d="M 166.5,409.5 C 168.23,410.026 169.564,411.026 170.5,412.5C 168.368,412.446 167.035,411.446 166.5,409.5 Z"/></g>
<g><path style="opacity:0.596" fill="#6c6680" d="M 137.5,405.5 C 139.932,406.75 142.266,408.25 144.5,410C 146.464,411.451 147.797,413.284 148.5,415.5C 144.225,412.858 140.558,409.525 137.5,405.5 Z"/></g>
<g><path style="opacity:0.6" fill="#615d77" d="M 359.5,409.5 C 359.063,411.074 358.063,412.241 356.5,413C 353.048,415.393 349.381,417.226 345.5,418.5C 349.79,415.015 354.457,412.015 359.5,409.5 Z"/></g>
<g><path style="opacity:0.333" fill="#635c79" d="M 380.5,412.5 C 379.5,414.167 378.167,415.5 376.5,416.5C 376.833,414.167 378.167,412.833 380.5,412.5 Z"/></g>
<g><path style="opacity:0.62" fill="#675f7b" d="M 171.5,412.5 C 174.709,414.265 177.709,416.265 180.5,418.5C 176.562,417.712 173.562,415.712 171.5,412.5 Z"/></g>
<g><path style="opacity:0.22" fill="#605876" d="M 375.5,416.5 C 373.909,418.633 371.909,420.299 369.5,421.5C 370.638,418.914 372.638,417.247 375.5,416.5 Z"/></g>
<g><path style="opacity:0.22" fill="#625b77" d="M 149.5,415.5 C 153.598,417.749 157.598,420.249 161.5,423C 163.063,423.759 164.063,424.926 164.5,426.5C 158.929,423.554 153.929,419.888 149.5,415.5 Z"/></g>
<g><path style="opacity:0.443" fill="#5f5774" d="M 340.5,420.5 C 336.099,423.787 331.266,426.454 326,428.5C 325.601,428.272 325.435,427.938 325.5,427.5C 330.311,424.93 335.311,422.597 340.5,420.5 Z"/></g>
<g><path style="opacity:0.584" fill="#615a76" d="M 165.5,426.5 C 168.267,426.87 170.267,428.204 171.5,430.5C 169.118,429.649 167.118,428.316 165.5,426.5 Z"/></g>
<g><path style="opacity:0.22" fill="#625b77" d="M 368.5,421.5 C 364.881,424.65 360.881,427.316 356.5,429.5C 359.783,425.852 363.783,423.185 368.5,421.5 Z"/></g>
<g><path style="opacity:0.576" fill="#605976" d="M 324.5,427.5 C 322.605,429.098 320.438,430.432 318,431.5C 317.601,431.272 317.435,430.938 317.5,430.5C 319.509,428.935 321.843,427.935 324.5,427.5 Z"/></g>
<g><path style="opacity:0.333" fill="#766786" d="M 181.5,418.5 C 224.868,440.392 269.868,444.392 316.5,430.5C 316.389,431.117 316.056,431.617 315.5,432C 292.309,439.006 268.642,441.34 244.5,439C 221.768,437.033 200.768,430.199 181.5,418.5 Z"/></g>
<g><path style="opacity:0.22" fill="#59536e" d="M 355.5,429.5 C 327.184,446.623 296.35,454.957 263,454.5C 230.452,454.919 200.285,446.919 172.5,430.5C 214.582,452.513 259.249,458.346 306.5,448C 323.885,443.39 340.219,437.223 355.5,429.5 Z"/></g>
</svg>
