<?xml version="1.0" encoding="UTF-8"?>
<!DOCTYPE svg PUBLIC "-//W3C//DTD SVG 1.1//EN" "http://www.w3.org/Graphics/SVG/1.1/DTD/svg11.dtd">
<svg xmlns="http://www.w3.org/2000/svg" version="1.1" width="528px" height="528px" style="shape-rendering:geometricPrecision; text-rendering:geometricPrecision; image-rendering:optimizeQuality; fill-rule:evenodd; clip-rule:evenodd" xmlns:xlink="http://www.w3.org/1999/xlink">
<g><path style="opacity:0.5" fill="#6d7fa5" d="M 253.5,77.5 C 261.833,77.5 270.167,77.5 278.5,77.5C 279.802,79.0276 281.469,80.0276 283.5,80.5C 273.518,79.7433 263.518,79.41 253.5,79.5C 253.5,78.8333 253.5,78.1667 253.5,77.5 Z"/></g>
<g><path style="opacity:1" fill="#a8bce9" d="M 253.5,79.5 C 263.518,79.41 273.518,79.7433 283.5,80.5C 311.856,83.1724 337.856,92.1724 361.5,107.5C 355.057,108.62 348.891,108.62 343,107.5C 342.283,108.044 341.783,108.711 341.5,109.5C 317.849,98.0043 292.849,92.0043 266.5,91.5C 261.833,90.1667 257.167,90.1667 252.5,91.5C 228.483,92.6089 205.817,98.6089 184.5,109.5C 184.217,108.711 183.717,108.044 183,107.5C 177.109,108.62 170.943,108.62 164.5,107.5C 179.514,97.9145 195.681,90.5812 213,85.5C 214.03,85.1639 214.53,84.4972 214.5,83.5C 215.167,83.5 215.833,83.5 216.5,83.5C 216.735,84.0967 217.235,84.4301 218,84.5C 229.641,81.4881 241.475,79.8214 253.5,79.5 Z"/></g>
<g><path style="opacity:0.667" fill="#546386" d="M 253.5,77.5 C 253.5,78.1667 253.5,78.8333 253.5,79.5C 241.475,79.8214 229.641,81.4881 218,84.5C 217.235,84.4301 216.735,84.0967 216.5,83.5C 228.434,79.8403 240.767,77.8403 253.5,77.5 Z"/></g>
<g><path style="opacity:0.5" fill="#707fa5" d="M 252.5,91.5 C 257.167,90.1667 261.833,90.1667 266.5,91.5C 265.833,91.5 265.5,91.8333 265.5,92.5C 263.833,92.5 262.167,92.5 260.5,92.5C 258.052,91.5269 255.385,91.1936 252.5,91.5 Z"/></g>
<g><path style="opacity:0.333" fill="#455172" d="M 266.5,91.5 C 292.849,92.0043 317.849,98.0043 341.5,109.5C 356.869,117.528 370.869,127.528 383.5,139.5C 383.5,140.167 383.5,140.833 383.5,141.5C 350.373,110.343 311.04,94.0099 265.5,92.5C 265.5,91.8333 265.833,91.5 266.5,91.5 Z"/></g>
<g><path style="opacity:0.667" fill="#4f597a" d="M 214.5,83.5 C 214.53,84.4972 214.03,85.1639 213,85.5C 195.681,90.5812 179.514,97.9145 164.5,107.5C 138.784,122.882 118.451,143.549 103.5,169.5C 96.5351,180.432 90.8684,192.099 86.5,204.5C 86.0431,205.298 85.3764,205.631 84.5,205.5C 107.515,143.151 150.848,102.485 214.5,83.5 Z"/></g>
<g><path style="opacity:1" fill="#b0bbe8" d="M 164.5,107.5 C 170.943,108.62 177.109,108.62 183,107.5C 183.717,108.044 184.217,108.711 184.5,109.5C 156.083,124.92 132.75,145.92 114.5,172.5C 114.539,171.244 114.039,170.244 113,169.5C 110.003,170.166 106.836,170.166 103.5,169.5C 118.451,143.549 138.784,122.882 164.5,107.5 Z"/></g>
<g><path style="opacity:1" fill="#afbbe7" d="M 361.5,107.5 C 387.216,122.882 407.549,143.549 422.5,169.5C 419.164,170.166 415.997,170.166 413,169.5C 411.961,170.244 411.461,171.244 411.5,172.5C 403.668,160.326 394.334,149.326 383.5,139.5C 370.869,127.528 356.869,117.528 341.5,109.5C 341.783,108.711 342.283,108.044 343,107.5C 348.891,108.62 355.057,108.62 361.5,107.5 Z"/></g>
<g><path style="opacity:0.22" fill="#505a7b" d="M 252.5,91.5 C 255.385,91.1936 258.052,91.5269 260.5,92.5C 194.668,96.3172 144.834,126.317 111,182.5C 106.725,191.382 102.725,200.382 99,209.5C 94.5868,210.632 90.0868,210.799 85.5,210C 83.6885,208.959 83.3552,207.793 84.5,206.5C 88.7726,208.733 93.2726,209.066 98,207.5C 102.43,195.308 107.93,183.641 114.5,172.5C 132.75,145.92 156.083,124.92 184.5,109.5C 205.817,98.6089 228.483,92.6089 252.5,91.5 Z"/></g>
<g><path style="opacity:0.667" fill="#515b7d" d="M 278.5,77.5 C 352.556,86.7403 405.389,125.074 437,192.5C 439.304,197.739 440.97,203.072 442,208.5C 441.5,209 441,209.5 440.5,210C 436.5,210.667 432.5,210.667 428.5,210C 427.667,209.167 426.833,208.333 426,207.5C 424.035,201.572 421.535,195.906 418.5,190.5C 419.167,190.5 419.833,190.5 420.5,190.5C 424.019,195.869 426.686,201.702 428.5,208C 432.486,208.499 436.486,208.666 440.5,208.5C 436.368,194.573 430.368,181.573 422.5,169.5C 407.549,143.549 387.216,122.882 361.5,107.5C 337.856,92.1724 311.856,83.1724 283.5,80.5C 281.469,80.0276 279.802,79.0276 278.5,77.5 Z"/></g>
<g><path style="opacity:1" fill="#babbe7" d="M 103.5,169.5 C 106.836,170.166 110.003,170.166 113,169.5C 114.039,170.244 114.539,171.244 114.5,172.5C 107.93,183.641 102.43,195.308 98,207.5C 93.2726,209.066 88.7726,208.733 84.5,206.5C 84.5,206.167 84.5,205.833 84.5,205.5C 85.3764,205.631 86.0431,205.298 86.5,204.5C 90.8684,192.099 96.5351,180.432 103.5,169.5 Z"/></g>
<g><path style="opacity:1" fill="#bbbbe8" d="M 422.5,169.5 C 430.368,181.573 436.368,194.573 440.5,208.5C 436.486,208.666 432.486,208.499 428.5,208C 426.686,201.702 424.019,195.869 420.5,190.5C 418.012,184.19 415.012,178.19 411.5,172.5C 411.461,171.244 411.961,170.244 413,169.5C 415.997,170.166 419.164,170.166 422.5,169.5 Z"/></g>
<g><path style="opacity:0.776" fill="#5b6284" d="M 383.5,139.5 C 394.334,149.326 403.668,160.326 411.5,172.5C 415.012,178.19 418.012,184.19 420.5,190.5C 419.833,190.5 419.167,190.5 418.5,190.5C 410.021,171.869 398.354,155.536 383.5,141.5C 383.5,140.833 383.5,140.167 383.5,139.5 Z"/></g>
<g><path style="opacity:0.502" fill="#364362" d="M 87.5,217.5 C 87.5,217.833 87.5,218.167 87.5,218.5C 59.8313,218.333 32.1647,218.5 4.5,219C 2.84464,220.444 2.17798,222.278 2.5,224.5C 2.16667,224.5 1.83333,224.5 1.5,224.5C 0.138928,220.934 1.47226,218.434 5.5,217C 33.0031,216.17 60.3364,216.336 87.5,217.5 Z"/></g>
<g><path style="opacity:0.5" fill="#364363" d="M 400.5,217.5 C 379.833,218.167 359.167,218.833 338.5,219.5C 337.167,219.5 336.5,220.167 336.5,221.5C 335.833,221.5 335.167,221.5 334.5,221.5C 334.916,219.248 336.249,217.748 338.5,217C 359.337,216.171 380.004,216.337 400.5,217.5 Z"/></g>
<g><path style="opacity:0.502" fill="#364362" d="M 524.5,219.5 C 523.833,219.5 523.167,219.5 522.5,219.5C 494.572,218.343 466.572,218.176 438.5,219C 437.244,219.417 436.577,220.25 436.5,221.5C 435.833,221.5 435.167,221.5 434.5,221.5C 434.916,219.248 436.249,217.748 438.5,217C 465.833,216.333 493.167,216.333 520.5,217C 522.32,217.2 523.653,218.034 524.5,219.5 Z"/></g>
<g><path style="opacity:0.667" fill="#394260" d="M 280.5,217.5 C 280.5,217.833 280.5,218.167 280.5,218.5C 259.497,218.333 238.497,218.5 217.5,219C 216.944,219.383 216.611,219.883 216.5,220.5C 216.5,220.833 216.5,221.167 216.5,221.5C 215.502,250.995 215.169,280.662 215.5,310.5C 215.167,310.5 214.833,310.5 214.5,310.5C 213.833,295.837 213.5,281.004 213.5,266C 213.348,250.411 213.848,234.911 215,219.5C 215.903,218.299 217.069,217.465 218.5,217C 239.337,216.171 260.004,216.337 280.5,217.5 Z"/></g>
<g><path style="opacity:1" fill="#869bc5" d="M 280.5,218.5 C 281.492,218.328 282.158,218.662 282.5,219.5C 260.455,219.188 238.455,219.522 216.5,220.5C 216.611,219.883 216.944,219.383 217.5,219C 238.497,218.5 259.497,218.333 280.5,218.5 Z"/></g>
<g><path style="opacity:1" fill="#8499c3" d="M 400.5,217.5 C 401.5,217.5 402.5,217.5 403.5,217.5C 403.5,218.167 403.5,218.833 403.5,219.5C 381.833,219.5 360.167,219.5 338.5,219.5C 359.167,218.833 379.833,218.167 400.5,217.5 Z"/></g>
<g><path style="opacity:0.443" fill="#505d7f" d="M 280.5,218.5 C 280.5,218.167 280.5,217.833 280.5,217.5C 293.357,218.931 301.357,225.931 304.5,238.5C 303.833,238.5 303.167,238.5 302.5,238.5C 300.037,227.702 293.37,221.369 282.5,219.5C 282.158,218.662 281.492,218.328 280.5,218.5 Z"/></g>
<g><path style="opacity:1" fill="#a4b9e7" d="M 87.5,218.5 C 90.0613,221.01 90.0613,223.51 87.5,226C 59.8333,226.667 32.1667,226.667 4.5,226C 3.9558,225.283 3.28913,224.783 2.5,224.5C 2.17798,222.278 2.84464,220.444 4.5,219C 32.1647,218.5 59.8313,218.333 87.5,218.5 Z"/></g>
<g><path style="opacity:1" fill="#abbdea" d="M 282.5,219.5 C 293.37,221.369 300.037,227.702 302.5,238.5C 302.5,239.833 302.5,241.167 302.5,242.5C 300.595,242.407 298.762,242.074 297,241.5C 296.802,243.382 296.302,245.048 295.5,246.5C 296.32,239.142 293.653,233.476 287.5,229.5C 286.158,228.207 284.491,227.374 282.5,227C 263.17,226.5 243.836,226.333 224.5,226.5C 223.505,237.988 223.172,249.655 223.5,261.5C 222.672,255.347 222.172,249.013 222,242.5C 220.333,242.167 218.667,241.833 217,241.5C 216.5,234.842 216.334,228.175 216.5,221.5C 216.5,221.167 216.5,220.833 216.5,220.5C 238.455,219.522 260.455,219.188 282.5,219.5 Z"/></g>
<g><path style="opacity:1" fill="#aabdea" d="M 338.5,219.5 C 360.167,219.5 381.833,219.5 403.5,219.5C 415.779,222.68 422.446,230.68 423.5,243.5C 423.493,245.369 423.16,247.036 422.5,248.5C 422.852,245.927 422.352,243.594 421,241.5C 419.667,241.5 418.333,241.5 417,241.5C 416.814,244.036 416.314,246.369 415.5,248.5C 416.936,237.875 412.603,230.709 402.5,227C 383.17,226.5 363.836,226.333 344.5,226.5C 343.512,231.64 343.179,236.974 343.5,242.5C 341.015,242.608 338.681,242.275 336.5,241.5C 336.5,234.833 336.5,228.167 336.5,221.5C 336.5,220.167 337.167,219.5 338.5,219.5 Z"/></g>
<g><path style="opacity:1" fill="#a5bae7" d="M 522.5,219.5 C 524.017,221.936 523.684,224.102 521.5,226C 495.835,226.5 470.169,226.667 444.5,226.5C 443.521,229.625 443.187,232.958 443.5,236.5C 440.812,236.166 438.479,236.832 436.5,238.5C 436.5,232.833 436.5,227.167 436.5,221.5C 436.577,220.25 437.244,219.417 438.5,219C 466.572,218.176 494.572,218.343 522.5,219.5 Z"/></g>
<g><path style="opacity:0.502" fill="#414e6d" d="M 87.5,217.5 C 91.254,218.828 92.4207,221.494 91,225.5C 90.0975,226.701 88.9308,227.535 87.5,228C 59.8333,228.667 32.1667,228.667 4.5,228C 2.5743,227.578 1.5743,226.411 1.5,224.5C 1.83333,224.5 2.16667,224.5 2.5,224.5C 3.28913,224.783 3.9558,225.283 4.5,226C 32.1667,226.667 59.8333,226.667 87.5,226C 90.0613,223.51 90.0613,221.01 87.5,218.5C 87.5,218.167 87.5,217.833 87.5,217.5 Z"/></g>
<g><path style="opacity:0.503" fill="#434f6f" d="M 224.5,226.5 C 243.836,226.333 263.17,226.5 282.5,227C 284.491,227.374 286.158,228.207 287.5,229.5C 287.5,230.167 287.5,230.833 287.5,231.5C 286.118,230.199 284.452,229.366 282.5,229C 263.503,228.5 244.503,228.333 225.5,228.5C 225.167,227.833 224.833,227.167 224.5,226.5 Z"/></g>
<g><path style="opacity:0.501" fill="#414d6d" d="M 522.5,219.5 C 523.167,219.5 523.833,219.5 524.5,219.5C 526.202,223.164 525.202,225.997 521.5,228C 496.169,228.5 470.836,228.667 445.5,228.5C 445.167,227.833 444.833,227.167 444.5,226.5C 470.169,226.667 495.835,226.5 521.5,226C 523.684,224.102 524.017,221.936 522.5,219.5 Z"/></g>
<g><path style="opacity:1" fill="#b0beeb" d="M 320.5,218.5 C 321.458,218.953 322.292,219.619 323,220.5C 323.5,229.494 323.666,238.494 323.5,247.5C 322.852,245.502 322.019,243.502 321,241.5C 319.667,242.833 318.333,242.833 317,241.5C 316.5,234.508 316.334,227.508 316.5,220.5C 317.287,218.896 318.62,218.229 320.5,218.5 Z"/></g>
<g><path style="opacity:0.5" fill="#5c6385" d="M 224.5,226.5 C 224.833,227.167 225.167,227.833 225.5,228.5C 225.5,239.167 225.5,249.833 225.5,260.5C 224.833,260.833 224.167,261.167 223.5,261.5C 223.172,249.655 223.505,237.988 224.5,226.5 Z"/></g>
<g><path style="opacity:0.333" fill="#565d7e" d="M 403.5,217.5 C 414.777,220.277 421.944,227.277 425,238.5C 426.723,250.175 422.889,259.509 413.5,266.5C 418.84,271.5 422.506,277.5 424.5,284.5C 423.624,284.631 422.957,284.298 422.5,283.5C 420.408,276.909 416.575,271.576 411,267.5C 410.761,266.212 411.261,265.212 412.5,264.5C 418.646,261.002 421.979,255.669 422.5,248.5C 423.16,247.036 423.493,245.369 423.5,243.5C 422.446,230.68 415.779,222.68 403.5,219.5C 403.5,218.833 403.5,218.167 403.5,217.5 Z"/></g>
<g><path style="opacity:0.333" fill="#72779b" d="M 444.5,226.5 C 444.833,227.167 445.167,227.833 445.5,228.5C 445.172,239.346 445.506,250.013 446.5,260.5C 446.158,261.338 445.492,261.672 444.5,261.5C 443.539,259.735 443.205,257.735 443.5,255.5C 443.5,249.167 443.5,242.833 443.5,236.5C 443.187,232.958 443.521,229.625 444.5,226.5 Z"/></g>
<g><path style="opacity:0.4" fill="#787da1" d="M 344.5,226.5 C 344.833,227.167 345.167,227.833 345.5,228.5C 345.172,239.346 345.506,250.013 346.5,260.5C 346.158,261.338 345.492,261.672 344.5,261.5C 343.51,255.355 343.177,249.022 343.5,242.5C 343.179,236.974 343.512,231.64 344.5,226.5 Z"/></g>
<g><path style="opacity:1" fill="#bec0ed" d="M 443.5,236.5 C 443.5,242.833 443.5,249.167 443.5,255.5C 441.167,256.833 438.833,256.833 436.5,255.5C 436.5,249.833 436.5,244.167 436.5,238.5C 438.479,236.832 440.812,236.166 443.5,236.5 Z"/></g>
<g><path style="opacity:0.667" fill="#585e7f" d="M 287.5,229.5 C 293.653,233.476 296.32,239.142 295.5,246.5C 293.627,253.702 289.293,258.702 282.5,261.5C 280.901,261.768 279.568,261.434 278.5,260.5C 290.12,258.356 294.953,251.356 293,239.5C 291.896,236.279 290.063,233.612 287.5,231.5C 287.5,230.833 287.5,230.167 287.5,229.5 Z"/></g>
<g><path style="opacity:0.333" fill="#3d4563" d="M 304.5,240.5 C 305.833,243.167 305.833,245.833 304.5,248.5C 303.167,245.833 303.167,243.167 304.5,240.5 Z"/></g>
<g><path style="opacity:0.667" fill="#535676" d="M 190.5,238.5 C 190.5,237.833 190.5,237.167 190.5,236.5C 192.194,235.473 193.527,234.139 194.5,232.5C 195.167,258.833 195.833,285.167 196.5,311.5C 197.274,312.147 198.274,312.48 199.5,312.5C 201.03,312.36 202.03,311.693 202.5,310.5C 203.496,297.01 203.829,283.344 203.5,269.5C 203.667,253.163 203.5,236.83 203,220.5C 201.534,218.675 199.701,218.175 197.5,219C 185.937,230.067 174.271,240.9 162.5,251.5C 159.703,253.795 157.036,256.295 154.5,259C 153.5,259.667 152.5,259.667 151.5,259C 143.296,251.293 134.963,243.793 126.5,236.5C 121.337,230.504 115.67,225.004 109.5,220C 107.105,217.855 104.938,218.022 103,220.5C 102.5,230.828 102.334,241.161 102.5,251.5C 102.5,258.167 102.5,264.833 102.5,271.5C 102.5,279.5 102.5,287.5 102.5,295.5C 102.334,300.844 102.501,306.177 103,311.5C 104.356,312.38 105.856,312.714 107.5,312.5C 107.5,313.167 107.5,313.833 107.5,314.5C 104.675,314.919 102.509,313.919 101,311.5C 100.333,281.167 100.333,250.833 101,220.5C 103.266,217.09 106.099,216.256 109.5,218C 124.012,231.18 138.512,244.346 153,257.5C 167.488,244.346 181.988,231.18 196.5,218C 199.347,216.148 201.847,216.648 204,219.5C 205.651,249.747 205.984,280.081 205,310.5C 201.829,315.414 198.163,315.747 194,311.5C 193.667,286.5 193.333,261.5 193,236.5C 192.292,237.381 191.458,238.047 190.5,238.5 Z"/></g>
<g><path style="opacity:1" fill="#b0b8e4" d="M 203.5,269.5 C 202.539,267.735 202.205,265.735 202.5,263.5C 202.832,253.145 202.499,242.812 201.5,232.5C 200.914,232.291 200.414,231.957 200,231.5C 199.184,232.823 198.017,233.489 196.5,233.5C 196.289,231.576 195.623,231.243 194.5,232.5C 193.527,234.139 192.194,235.473 190.5,236.5C 185.463,241.539 180.129,246.206 174.5,250.5C 170.425,249.062 166.425,249.395 162.5,251.5C 174.271,240.9 185.937,230.067 197.5,219C 199.701,218.175 201.534,218.675 203,220.5C 203.5,236.83 203.667,253.163 203.5,269.5 Z"/></g>
<g><path style="opacity:1" fill="#acbbe7" d="M 126.5,236.5 C 123.205,236.905 119.871,237.238 116.5,237.5C 114.833,236.5 113.5,235.167 112.5,233.5C 111.791,232.596 110.791,232.263 109.5,232.5C 109.5,235.5 109.5,238.5 109.5,241.5C 107.595,241.593 105.762,241.926 104,242.5C 103.819,245.695 103.319,248.695 102.5,251.5C 102.334,241.161 102.5,230.828 103,220.5C 104.938,218.022 107.105,217.855 109.5,220C 115.67,225.004 121.337,230.504 126.5,236.5 Z"/></g>
<g><path style="opacity:0.5" fill="#73779b" d="M 434.5,221.5 C 435.167,221.5 435.833,221.5 436.5,221.5C 436.5,227.167 436.5,232.833 436.5,238.5C 436.5,244.167 436.5,249.833 436.5,255.5C 436.5,258.5 436.5,261.5 436.5,264.5C 435.833,265.5 435.167,266.5 434.5,267.5C 434.5,252.167 434.5,236.833 434.5,221.5 Z"/></g>
<g><path style="opacity:0.22" fill="#737599" d="M 302.5,238.5 C 303.167,238.5 303.833,238.5 304.5,238.5C 304.5,239.167 304.5,239.833 304.5,240.5C 303.167,243.167 303.167,245.833 304.5,248.5C 303.933,252.967 302.266,256.967 299.5,260.5C 298.833,260.5 298.167,260.5 297.5,260.5C 301.588,255.229 303.255,249.229 302.5,242.5C 302.5,241.167 302.5,239.833 302.5,238.5 Z"/></g>
<g><path style="opacity:0.471" fill="#7a7ea2" d="M 334.5,221.5 C 335.167,221.5 335.833,221.5 336.5,221.5C 336.5,228.167 336.5,234.833 336.5,241.5C 336.5,248.833 336.5,256.167 336.5,263.5C 336.5,264.167 336.5,264.833 336.5,265.5C 335.833,264.833 335.167,264.167 334.5,263.5C 334.5,249.5 334.5,235.5 334.5,221.5 Z"/></g>
<g><path style="opacity:0.333" fill="#585c7d" d="M 190.5,236.5 C 190.5,237.167 190.5,237.833 190.5,238.5C 178.703,249.128 167.036,259.961 155.5,271C 154.667,271.167 153.833,271.333 153,271.5C 150.277,270.459 147.777,268.959 145.5,267C 136.468,258.493 127.468,249.993 118.5,241.5C 118.5,240.833 118.5,240.167 118.5,239.5C 127.599,247.096 136.266,255.263 144.5,264C 147.104,266.286 149.937,268.119 153,269.5C 161.201,264.46 168.368,258.126 174.5,250.5C 180.129,246.206 185.463,241.539 190.5,236.5 Z"/></g>
<g><path style="opacity:1" fill="#c6beea" d="M 109.5,241.5 C 109.5,248.833 109.5,256.167 109.5,263.5C 107.753,263.593 105.919,263.926 104,264.5C 103.814,267.036 103.314,269.369 102.5,271.5C 102.5,264.833 102.5,258.167 102.5,251.5C 103.319,248.695 103.819,245.695 104,242.5C 105.762,241.926 107.595,241.593 109.5,241.5 Z"/></g>
<g><path style="opacity:1" fill="#c0bae5" d="M 126.5,236.5 C 134.963,243.793 143.296,251.293 151.5,259C 152.5,259.667 153.5,259.667 154.5,259C 157.036,256.295 159.703,253.795 162.5,251.5C 166.425,249.395 170.425,249.062 174.5,250.5C 168.368,258.126 161.201,264.46 153,269.5C 149.937,268.119 147.104,266.286 144.5,264C 136.266,255.263 127.599,247.096 118.5,239.5C 117.5,239.167 116.833,238.5 116.5,237.5C 119.871,237.238 123.205,236.905 126.5,236.5 Z"/></g>
<g><path style="opacity:1" fill="#c4c0ec" d="M 202.5,263.5 C 200.611,264.38 198.611,264.38 196.5,263.5C 196.5,253.5 196.5,243.5 196.5,233.5C 198.017,233.489 199.184,232.823 200,231.5C 200.414,231.957 200.914,232.291 201.5,232.5C 202.499,242.812 202.832,253.145 202.5,263.5 Z"/></g>
<g><path style="opacity:1" fill="#c0b7e1" d="M 216.5,221.5 C 216.334,228.175 216.5,234.842 217,241.5C 218.667,241.833 220.333,242.167 222,242.5C 222.172,249.013 222.672,255.347 223.5,261.5C 243.167,262.833 262.833,262.833 282.5,261.5C 289.293,258.702 293.627,253.702 295.5,246.5C 296.302,245.048 296.802,243.382 297,241.5C 298.762,242.074 300.595,242.407 302.5,242.5C 303.255,249.229 301.588,255.229 297.5,260.5C 296.415,262.587 294.749,263.92 292.5,264.5C 267.505,264.068 242.171,263.735 216.5,263.5C 216.5,265.5 216.5,267.5 216.5,269.5C 216.5,274.5 216.5,279.5 216.5,284.5C 216.5,293.167 216.5,301.833 216.5,310.5C 216.167,310.5 215.833,310.5 215.5,310.5C 215.169,280.662 215.502,250.995 216.5,221.5 Z"/></g>
<g><path style="opacity:1" fill="#c5beea" d="M 336.5,241.5 C 338.681,242.275 341.015,242.608 343.5,242.5C 343.177,249.022 343.51,255.355 344.5,261.5C 363.833,262.833 383.167,262.833 402.5,261.5C 405.234,260.295 407.901,258.795 410.5,257C 412.556,254.386 414.223,251.553 415.5,248.5C 416.314,246.369 416.814,244.036 417,241.5C 418.333,241.5 419.667,241.5 421,241.5C 422.352,243.594 422.852,245.927 422.5,248.5C 421.979,255.669 418.646,261.002 412.5,264.5C 387.505,264.068 362.171,263.735 336.5,263.5C 336.5,256.167 336.5,248.833 336.5,241.5 Z"/></g>
<g><path style="opacity:1" fill="#a398bf" d="M 112.5,233.5 C 110.836,258.984 109.836,284.65 109.5,310.5C 109.5,301.833 109.5,293.167 109.5,284.5C 109.5,277.5 109.5,270.5 109.5,263.5C 109.5,256.167 109.5,248.833 109.5,241.5C 109.5,238.5 109.5,235.5 109.5,232.5C 110.791,232.263 111.791,232.596 112.5,233.5 Z"/></g>
<g><path style="opacity:0.494" fill="#666a8c" d="M 320.5,218.5 C 320.5,218.167 320.5,217.833 320.5,217.5C 322.911,217.137 324.411,218.137 325,220.5C 325.5,238.83 325.667,257.164 325.5,275.5C 324.833,274.167 324.167,272.833 323.5,271.5C 323.5,263.5 323.5,255.5 323.5,247.5C 323.666,238.494 323.5,229.494 323,220.5C 322.292,219.619 321.458,218.953 320.5,218.5 Z"/></g>
<g><path style="opacity:0.443" fill="#4b5373" d="M 344.5,226.5 C 363.836,226.333 383.17,226.5 402.5,227C 412.603,230.709 416.936,237.875 415.5,248.5C 414.223,251.553 412.556,254.386 410.5,257C 407.901,258.795 405.234,260.295 402.5,261.5C 401.209,261.737 400.209,261.404 399.5,260.5C 410.827,257.533 415.327,250.2 413,238.5C 411.073,233.572 407.573,230.406 402.5,229C 383.503,228.5 364.503,228.333 345.5,228.5C 345.167,227.833 344.833,227.167 344.5,226.5 Z"/></g>
<g><path style="opacity:0.505" fill="#9791b8" d="M 225.5,260.5 C 243.167,260.5 260.833,260.5 278.5,260.5C 279.568,261.434 280.901,261.768 282.5,261.5C 262.833,262.833 243.167,262.833 223.5,261.5C 224.167,261.167 224.833,260.833 225.5,260.5 Z"/></g>
<g><path style="opacity:0.505" fill="#9791b7" d="M 346.5,260.5 C 364.167,260.5 381.833,260.5 399.5,260.5C 400.209,261.404 401.209,261.737 402.5,261.5C 383.167,262.833 363.833,262.833 344.5,261.5C 345.492,261.672 346.158,261.338 346.5,260.5 Z"/></g>
<g><path style="opacity:0.501" fill="#9690b7" d="M 446.5,260.5 C 471.167,260.5 495.833,260.5 520.5,260.5C 520.833,261.167 521.167,261.833 521.5,262.5C 495.661,262.831 469.995,262.498 444.5,261.5C 445.492,261.672 446.158,261.338 446.5,260.5 Z"/></g>
<g><path style="opacity:1" fill="#d0c0eb" d="M 292.5,264.5 C 288.503,267.724 283.836,269.39 278.5,269.5C 259.992,269.17 241.659,269.503 223.5,270.5C 221.015,270.608 218.681,270.275 216.5,269.5C 216.5,267.5 216.5,265.5 216.5,263.5C 242.171,263.735 267.505,264.068 292.5,264.5 Z"/></g>
<g><path style="opacity:1" fill="#c0b4df" d="M 316.5,220.5 C 316.334,227.508 316.5,234.508 317,241.5C 318.333,242.833 319.667,242.833 321,241.5C 322.019,243.502 322.852,245.502 323.5,247.5C 323.5,255.5 323.5,263.5 323.5,271.5C 323.5,272.833 323.5,274.167 323.5,275.5C 322.852,273.502 322.019,271.502 321,269.5C 319.667,269.5 318.333,269.5 317,269.5C 316.5,283.163 316.333,296.829 316.5,310.5C 315.167,280.5 315.167,250.5 316.5,220.5 Z"/></g>
<g><path style="opacity:1" fill="#d1bde8" d="M 336.5,263.5 C 362.171,263.735 387.505,264.068 412.5,264.5C 411.261,265.212 410.761,266.212 411,267.5C 416.575,271.576 420.408,276.909 422.5,283.5C 422.957,284.298 423.624,284.631 424.5,284.5C 424.5,285.167 424.5,285.833 424.5,286.5C 423.833,294.833 423.167,303.167 422.5,311.5C 422.5,304.833 422.5,298.167 422.5,291.5C 420.5,291.5 418.5,291.5 416.5,291.5C 416.5,297.833 416.5,304.167 416.5,310.5C 415.509,304.021 415.176,297.354 415.5,290.5C 414.133,280.284 408.467,273.451 398.5,270C 380.503,269.5 362.503,269.333 344.5,269.5C 343.523,272.287 343.19,275.287 343.5,278.5C 342.778,278.082 342.278,277.416 342,276.5C 340.081,277.074 338.247,277.407 336.5,277.5C 336.5,273.5 336.5,269.5 336.5,265.5C 336.5,264.833 336.5,264.167 336.5,263.5 Z"/></g>
<g><path style="opacity:1" fill="#d0c0ec" d="M 436.5,255.5 C 438.833,256.833 441.167,256.833 443.5,255.5C 443.205,257.735 443.539,259.735 444.5,261.5C 469.995,262.498 495.661,262.831 521.5,262.5C 524.134,264.54 524.134,266.707 521.5,269C 495.835,269.5 470.169,269.667 444.5,269.5C 443.523,272.287 443.19,275.287 443.5,278.5C 442.778,278.082 442.278,277.416 442,276.5C 440.081,277.074 438.247,277.407 436.5,277.5C 436.5,273.167 436.5,268.833 436.5,264.5C 436.5,261.5 436.5,258.5 436.5,255.5 Z"/></g>
<g><path style="opacity:0.502" fill="#615f7f" d="M 5.5,260.5 C 5.5,261.167 5.5,261.833 5.5,262.5C 1.93165,263.969 1.59831,266.136 4.5,269C 32.5,269.667 60.5,269.667 88.5,269C 90.0203,266.448 89.6869,264.282 87.5,262.5C 87.1667,261.833 86.8333,261.167 86.5,260.5C 92.2285,262.977 92.8951,266.477 88.5,271C 60.5,271.667 32.5,271.667 4.5,271C -1.09212,266.882 -0.758785,263.382 5.5,260.5 Z"/></g>
<g><path style="opacity:1" fill="#d0c0eb" d="M 5.5,262.5 C 32.8333,262.5 60.1667,262.5 87.5,262.5C 89.6869,264.282 90.0203,266.448 88.5,269C 60.5,269.667 32.5,269.667 4.5,269C 1.59831,266.136 1.93165,263.969 5.5,262.5 Z"/></g>
<g><path style="opacity:0.502" fill="#9690b6" d="M 5.5,260.5 C 32.5,260.5 59.5,260.5 86.5,260.5C 86.8333,261.167 87.1667,261.833 87.5,262.5C 60.1667,262.5 32.8333,262.5 5.5,262.5C 5.5,261.833 5.5,261.167 5.5,260.5 Z"/></g>
<g><path style="opacity:0.446" fill="#676182" d="M 278.5,269.5 C 278.5,270.167 278.5,270.833 278.5,271.5C 260.833,271.5 243.167,271.5 225.5,271.5C 225.667,284.837 225.5,298.171 225,311.5C 222.321,314.835 219.155,315.335 215.5,313C 214.748,312.329 214.414,311.496 214.5,310.5C 214.833,310.5 215.167,310.5 215.5,310.5C 215.833,310.5 216.167,310.5 216.5,310.5C 217.134,311.947 218.301,312.613 220,312.5C 221.07,312.472 221.903,312.139 222.5,311.5C 223.496,298.01 223.829,284.344 223.5,270.5C 241.659,269.503 259.992,269.17 278.5,269.5 Z"/></g>
<g><path style="opacity:0.5" fill="#4b4c6b" d="M 297.5,260.5 C 298.167,260.5 298.833,260.5 299.5,260.5C 294.346,267.578 287.346,271.244 278.5,271.5C 278.5,270.833 278.5,270.167 278.5,269.5C 283.836,269.39 288.503,267.724 292.5,264.5C 294.749,263.92 296.415,262.587 297.5,260.5 Z"/></g>
<g><path style="opacity:0.444" fill="#625e7f" d="M 344.5,269.5 C 362.503,269.333 380.503,269.5 398.5,270C 408.467,273.451 414.133,280.284 415.5,290.5C 414.833,290.5 414.167,290.5 413.5,290.5C 412.69,282.045 408.356,276.212 400.5,273C 382.222,271.553 363.889,271.053 345.5,271.5C 345.167,270.833 344.833,270.167 344.5,269.5 Z"/></g>
<g><path style="opacity:0.502" fill="#615f80" d="M 520.5,260.5 C 526.759,263.382 527.092,266.882 521.5,271C 496.169,271.5 470.836,271.667 445.5,271.5C 445.167,270.833 444.833,270.167 444.5,269.5C 470.169,269.667 495.835,269.5 521.5,269C 524.134,266.707 524.134,264.54 521.5,262.5C 521.167,261.833 520.833,261.167 520.5,260.5 Z"/></g>
<g><path style="opacity:1" fill="#d9bce7" d="M 216.5,269.5 C 218.681,270.275 221.015,270.608 223.5,270.5C 223.829,284.344 223.496,298.01 222.5,311.5C 222.5,302.5 222.5,293.5 222.5,284.5C 220.5,284.5 218.5,284.5 216.5,284.5C 216.5,279.5 216.5,274.5 216.5,269.5 Z"/></g>
<g><path style="opacity:1" fill="#d9bee9" d="M 109.5,263.5 C 109.5,270.5 109.5,277.5 109.5,284.5C 107.5,284.5 105.5,284.5 103.5,284.5C 103.815,288.371 103.482,292.038 102.5,295.5C 102.5,287.5 102.5,279.5 102.5,271.5C 103.314,269.369 103.814,267.036 104,264.5C 105.919,263.926 107.753,263.593 109.5,263.5 Z"/></g>
<g><path style="opacity:1" fill="#b9a8d1" d="M 194.5,232.5 C 195.623,231.243 196.289,231.576 196.5,233.5C 196.5,243.5 196.5,253.5 196.5,263.5C 196.5,272.833 196.5,282.167 196.5,291.5C 196.5,298.167 196.5,304.833 196.5,311.5C 195.833,285.167 195.167,258.833 194.5,232.5 Z"/></g>
<g><path style="opacity:1" fill="#dabce7" d="M 196.5,263.5 C 198.611,264.38 200.611,264.38 202.5,263.5C 202.205,265.735 202.539,267.735 203.5,269.5C 203.829,283.344 203.496,297.01 202.5,310.5C 202.83,304.132 202.496,297.798 201.5,291.5C 199.997,292.052 198.331,292.052 196.5,291.5C 196.5,282.167 196.5,272.833 196.5,263.5 Z"/></g>
<g><path style="opacity:0.383" fill="#2e314c" d="M 334.5,282.5 C 335.815,291.265 335.815,299.932 334.5,308.5C 333.167,299.833 333.167,291.167 334.5,282.5 Z"/></g>
<g><path style="opacity:0.5" fill="#766889" d="M 323.5,271.5 C 324.167,272.833 324.833,274.167 325.5,275.5C 325.667,287.505 325.5,299.505 325,311.5C 322.702,314.526 319.869,315.192 316.5,313.5C 316.5,312.833 316.5,312.167 316.5,311.5C 318.67,312.768 320.837,312.768 323,311.5C 323.5,299.505 323.667,287.505 323.5,275.5C 323.5,274.167 323.5,272.833 323.5,271.5 Z"/></g>
<g><path style="opacity:0.451" fill="#8a799c" d="M 444.5,269.5 C 444.833,270.167 445.167,270.833 445.5,271.5C 445.5,282.167 445.5,292.833 445.5,303.5C 444.833,303.5 444.5,303.833 444.5,304.5C 443.596,303.791 443.263,302.791 443.5,301.5C 443.5,293.833 443.5,286.167 443.5,278.5C 443.19,275.287 443.523,272.287 444.5,269.5 Z"/></g>
<g><path style="opacity:0.491" fill="#414360" d="M 320.5,217.5 C 320.5,217.833 320.5,218.167 320.5,218.5C 318.62,218.229 317.287,218.896 316.5,220.5C 315.167,250.5 315.167,280.5 316.5,310.5C 316.5,310.833 316.5,311.167 316.5,311.5C 316.5,312.167 316.5,312.833 316.5,313.5C 315.21,312.942 314.377,311.942 314,310.5C 313.333,280.833 313.333,251.167 314,221.5C 315.314,218.112 317.48,216.779 320.5,217.5 Z"/></g>
<g><path style="opacity:0.5" fill="#41425f" d="M 112.5,233.5 C 113.5,235.167 114.833,236.5 116.5,237.5C 116.833,238.5 117.5,239.167 118.5,239.5C 118.5,240.167 118.5,240.833 118.5,241.5C 116.537,240.04 114.704,238.373 113,236.5C 112.667,261.167 112.333,285.833 112,310.5C 111.252,312.751 109.752,314.084 107.5,314.5C 107.5,313.833 107.5,313.167 107.5,312.5C 108.833,312.5 109.5,311.833 109.5,310.5C 109.836,284.65 110.836,258.984 112.5,233.5 Z"/></g>
<g><path style="opacity:1" fill="#e6bfe9" d="M 323.5,275.5 C 323.667,287.505 323.5,299.505 323,311.5C 320.837,312.768 318.67,312.768 316.5,311.5C 316.5,311.167 316.5,310.833 316.5,310.5C 316.333,296.829 316.5,283.163 317,269.5C 318.333,269.5 319.667,269.5 321,269.5C 322.019,271.502 322.852,273.502 323.5,275.5 Z"/></g>
<g><path style="opacity:0.476" fill="#6b5e7f" d="M 424.5,286.5 C 425.657,294.656 425.823,302.99 425,311.5C 422.702,314.526 419.869,315.192 416.5,313.5C 416.5,312.833 416.5,312.167 416.5,311.5C 418.611,312.742 420.611,312.742 422.5,311.5C 423.167,303.167 423.833,294.833 424.5,286.5 Z"/></g>
<g><path style="opacity:0.439" fill="#3e3d5a" d="M 413.5,290.5 C 414.167,290.5 414.833,290.5 415.5,290.5C 415.176,297.354 415.509,304.021 416.5,310.5C 416.5,310.833 416.5,311.167 416.5,311.5C 416.5,312.167 416.5,312.833 416.5,313.5C 415.034,312.653 414.2,311.32 414,309.5C 413.5,303.175 413.334,296.842 413.5,290.5 Z"/></g>
<g><path style="opacity:1" fill="#efc0ea" d="M 196.5,291.5 C 198.331,292.052 199.997,292.052 201.5,291.5C 202.496,297.798 202.83,304.132 202.5,310.5C 202.03,311.693 201.03,312.36 199.5,312.5C 198.274,312.48 197.274,312.147 196.5,311.5C 196.5,304.833 196.5,298.167 196.5,291.5 Z"/></g>
<g><path style="opacity:0.5" fill="#8d7b9e" d="M 334.5,263.5 C 335.167,264.167 335.833,264.833 336.5,265.5C 336.5,269.5 336.5,273.5 336.5,277.5C 336.333,288.838 336.5,300.172 337,311.5C 339,312.833 341,312.833 343,311.5C 343.5,300.505 343.667,289.505 343.5,278.5C 343.19,275.287 343.523,272.287 344.5,269.5C 344.833,270.167 345.167,270.833 345.5,271.5C 345.667,284.837 345.5,298.171 345,311.5C 339.842,316.104 336.342,315.104 334.5,308.5C 335.815,299.932 335.815,291.265 334.5,282.5C 334.397,276.377 334.397,270.044 334.5,263.5 Z"/></g>
<g><path style="opacity:1" fill="#ebc1ea" d="M 343.5,278.5 C 343.667,289.505 343.5,300.505 343,311.5C 341,312.833 339,312.833 337,311.5C 336.5,300.172 336.333,288.838 336.5,277.5C 338.247,277.407 340.081,277.074 342,276.5C 342.278,277.416 342.778,278.082 343.5,278.5 Z"/></g>
<g><path style="opacity:1" fill="#e9c1eb" d="M 443.5,278.5 C 443.5,286.167 443.5,293.833 443.5,301.5C 441.118,302.546 438.785,302.546 436.5,301.5C 436.5,293.5 436.5,285.5 436.5,277.5C 438.247,277.407 440.081,277.074 442,276.5C 442.278,277.416 442.778,278.082 443.5,278.5 Z"/></g>
<g><path style="opacity:1" fill="#f0c0ea" d="M 422.5,311.5 C 420.611,312.742 418.611,312.742 416.5,311.5C 416.5,311.167 416.5,310.833 416.5,310.5C 416.5,304.167 416.5,297.833 416.5,291.5C 418.5,291.5 420.5,291.5 422.5,291.5C 422.5,298.167 422.5,304.833 422.5,311.5 Z"/></g>
<g><path style="opacity:0.502" fill="#aa8cb0" d="M 5.5,303.5 C 32.5,303.5 59.5,303.5 86.5,303.5C 86.5,304.167 86.5,304.833 86.5,305.5C 59.5,305.5 32.5,305.5 5.5,305.5C 5.5,304.833 5.5,304.167 5.5,303.5 Z"/></g>
<g><path style="opacity:0.501" fill="#ab8cb0" d="M 445.5,303.5 C 470.5,303.5 495.5,303.5 520.5,303.5C 520.5,304.167 520.5,304.833 520.5,305.5C 494.995,305.831 469.661,305.498 444.5,304.5C 444.5,303.833 444.833,303.5 445.5,303.5 Z"/></g>
<g><path style="opacity:0.333" fill="#5c506f" d="M 520.5,303.5 C 526.228,305.977 526.895,309.477 522.5,314C 521.552,314.483 520.552,314.649 519.5,314.5C 519.5,314.167 519.5,313.833 519.5,313.5C 520.167,313.5 520.5,313.167 520.5,312.5C 522.722,312.441 523.722,311.275 523.5,309C 523.722,306.725 522.722,305.559 520.5,305.5C 520.5,304.833 520.5,304.167 520.5,303.5 Z"/></g>
<g><path style="opacity:1" fill="#f6c1ea" d="M 5.5,305.5 C 32.5,305.5 59.5,305.5 86.5,305.5C 87.4959,305.414 88.3292,305.748 89,306.5C 89.7429,308.441 89.5762,310.274 88.5,312C 60.8353,312.5 33.1687,312.667 5.5,312.5C 2.87202,311.375 2.03869,309.375 3,306.5C 3.67076,305.748 4.5041,305.414 5.5,305.5 Z"/></g>
<g><path style="opacity:1" fill="#edbfe8" d="M 109.5,284.5 C 109.5,293.167 109.5,301.833 109.5,310.5C 109.5,311.833 108.833,312.5 107.5,312.5C 105.856,312.714 104.356,312.38 103,311.5C 102.501,306.177 102.334,300.844 102.5,295.5C 103.482,292.038 103.815,288.371 103.5,284.5C 105.5,284.5 107.5,284.5 109.5,284.5 Z"/></g>
<g><path style="opacity:1" fill="#efc0ea" d="M 216.5,284.5 C 218.5,284.5 220.5,284.5 222.5,284.5C 222.5,293.5 222.5,302.5 222.5,311.5C 221.903,312.139 221.07,312.472 220,312.5C 218.301,312.613 217.134,311.947 216.5,310.5C 216.5,301.833 216.5,293.167 216.5,284.5 Z"/></g>
<g><path style="opacity:1" fill="#f6c1ea" d="M 436.5,301.5 C 438.785,302.546 441.118,302.546 443.5,301.5C 443.263,302.791 443.596,303.791 444.5,304.5C 469.661,305.498 494.995,305.831 520.5,305.5C 522.722,305.559 523.722,306.725 523.5,309C 523.722,311.275 522.722,312.441 520.5,312.5C 492.831,312.667 465.165,312.5 437.5,312C 436.544,308.606 436.211,305.106 436.5,301.5 Z"/></g>
<g><path style="opacity:0.999" fill="#927799" d="M 86.5,303.5 C 92.2285,305.977 92.8951,309.477 88.5,314C 87.552,314.483 86.552,314.649 85.5,314.5C 59.3386,313.502 33.0053,313.169 6.5,313.5C 5.83333,313.5 5.5,313.167 5.5,312.5C 33.1687,312.667 60.8353,312.5 88.5,312C 89.5762,310.274 89.7429,308.441 89,306.5C 88.3292,305.748 87.4959,305.414 86.5,305.5C 86.5,304.833 86.5,304.167 86.5,303.5 Z"/></g>
<g><path style="opacity:0.999" fill="#91789a" d="M 436.5,264.5 C 436.5,268.833 436.5,273.167 436.5,277.5C 436.5,285.5 436.5,293.5 436.5,301.5C 436.211,305.106 436.544,308.606 437.5,312C 465.165,312.5 492.831,312.667 520.5,312.5C 520.5,313.167 520.167,313.5 519.5,313.5C 492.995,313.169 466.661,313.502 440.5,314.5C 438.097,314.607 436.264,313.607 435,311.5C 434.5,296.837 434.333,282.17 434.5,267.5C 435.167,266.5 435.833,265.5 436.5,264.5 Z"/></g>
<g><path style="opacity:0.333" fill="#5d5170" d="M 5.5,303.5 C 5.5,304.167 5.5,304.833 5.5,305.5C 4.5041,305.414 3.67076,305.748 3,306.5C 2.03869,309.375 2.87202,311.375 5.5,312.5C 5.5,313.167 5.83333,313.5 6.5,313.5C 6.5,313.833 6.5,314.167 6.5,314.5C 1.96329,313.774 0.129958,311.107 1,306.5C 2.12901,304.859 3.62901,303.859 5.5,303.5 Z"/></g>
<g><path style="opacity:0.453" fill="#2d2f4a" d="M 6.5,313.5 C 33.0053,313.169 59.3386,313.502 85.5,314.5C 59.1667,315.833 32.8333,315.833 6.5,314.5C 6.5,314.167 6.5,313.833 6.5,313.5 Z"/></g>
<g><path style="opacity:0.453" fill="#2d2f4a" d="M 519.5,313.5 C 519.5,313.833 519.5,314.167 519.5,314.5C 493.167,315.833 466.833,315.833 440.5,314.5C 466.661,313.502 492.995,313.169 519.5,313.5 Z"/></g>
<g><path style="opacity:0.333" fill="#605978" d="M 203.5,428.5 C 203.565,428.938 203.399,429.272 203,429.5C 188.96,424.439 175.793,417.773 163.5,409.5C 152.793,401.788 142.793,393.121 133.5,383.5C 124.746,373.232 116.913,362.232 110,350.5C 105.046,341.931 101.212,332.931 98.5,323.5C 94.1161,323.174 89.7828,323.508 85.5,324.5C 92.7938,346.406 103.794,366.072 118.5,383.5C 120.115,386.45 122.115,389.116 124.5,391.5C 124.167,391.5 123.833,391.5 123.5,391.5C 105.221,372.137 91.8878,349.637 83.5,324C 83.6448,323.228 83.9781,322.561 84.5,322C 89.1667,321.333 93.8333,321.333 98.5,322C 117.956,372.955 152.956,408.455 203.5,428.5 Z"/></g>
<g><path style="opacity:1" fill="#ddbce6" d="M 133.5,383.5 C 131.692,384.317 130.192,383.65 129,381.5C 125.667,382.833 122.333,382.833 119,381.5C 118.536,382.094 118.369,382.761 118.5,383.5C 103.794,366.072 92.7938,346.406 85.5,324.5C 89.7828,323.508 94.1161,323.174 98.5,323.5C 101.212,332.931 105.046,341.931 110,350.5C 116.913,362.232 124.746,373.232 133.5,383.5 Z"/></g>
<g><path style="opacity:1" fill="#e6bce6" d="M 133.5,383.5 C 142.793,393.121 152.793,401.788 163.5,409.5C 161.042,410.623 158.875,410.623 157,409.5C 156,410.5 155,411.5 154,412.5C 151.477,408.503 149.643,408.836 148.5,413.5C 145.455,410.453 142.122,407.787 138.5,405.5C 134.167,400.5 129.5,395.833 124.5,391.5C 122.115,389.116 120.115,386.45 118.5,383.5C 118.369,382.761 118.536,382.094 119,381.5C 122.333,382.833 125.667,382.833 129,381.5C 130.192,383.65 131.692,384.317 133.5,383.5 Z"/></g>
<g><path style="opacity:1" fill="#e4bbe5" d="M 407.5,383.5 C 405.549,386.786 403.215,389.786 400.5,392.5C 393.443,400.191 385.776,407.191 377.5,413.5C 376.863,410.665 375.363,409.332 373,409.5C 372,410.5 371,411.5 370,412.5C 369,411.5 368,410.5 367,409.5C 364.227,410.071 361.394,411.071 358.5,412.5C 370.537,403.792 381.87,394.125 392.5,383.5C 394.03,382.933 395.53,382.267 397,381.5C 400.333,382.833 403.667,382.833 407,381.5C 407.464,382.094 407.631,382.761 407.5,383.5 Z"/></g>
<g><path style="opacity:0.667" fill="#7f6f90" d="M 123.5,391.5 C 123.833,391.5 124.167,391.5 124.5,391.5C 129.5,395.833 134.167,400.5 138.5,405.5C 138.5,405.833 138.5,406.167 138.5,406.5C 132.5,402.5 127.5,397.5 123.5,391.5 Z"/></g>
<g><path style="opacity:1" fill="#ebbce5" d="M 163.5,409.5 C 175.793,417.773 188.96,424.439 203,429.5C 203.399,429.272 203.565,428.938 203.5,428.5C 203.833,428.5 204.167,428.5 204.5,428.5C 204.369,429.376 204.702,430.043 205.5,430.5C 217.061,434.405 228.728,437.405 240.5,439.5C 226.756,440.682 213.589,440.682 201,439.5C 200.536,440.094 200.369,440.761 200.5,441.5C 181.487,435.122 164.153,425.789 148.5,413.5C 149.643,408.836 151.477,408.503 154,412.5C 155,411.5 156,410.5 157,409.5C 158.875,410.623 161.042,410.623 163.5,409.5 Z"/></g>
<g><path style="opacity:0.667" fill="#5f5776" d="M 402.5,392.5 C 401.833,392.5 401.167,392.5 400.5,392.5C 403.215,389.786 405.549,386.786 407.5,383.5C 422.33,366.193 433.33,346.526 440.5,324.5C 436.217,323.508 431.884,323.174 427.5,323.5C 424.453,333.6 420.286,343.266 415,352.5C 408.031,363.29 400.531,373.623 392.5,383.5C 381.87,394.125 370.537,403.792 358.5,412.5C 343.875,421.226 328.375,428.226 312,433.5C 311.235,433.43 310.735,433.097 310.5,432.5C 367.075,414.429 406.075,377.596 427.5,322C 432.167,321.333 436.833,321.333 441.5,322C 442.022,322.561 442.355,323.228 442.5,324C 433.884,349.753 420.55,372.586 402.5,392.5 Z"/></g>
<g><path style="opacity:1" fill="#dcbbe5" d="M 407.5,383.5 C 407.631,382.761 407.464,382.094 407,381.5C 403.667,382.833 400.333,382.833 397,381.5C 395.53,382.267 394.03,382.933 392.5,383.5C 400.531,373.623 408.031,363.29 415,352.5C 420.286,343.266 424.453,333.6 427.5,323.5C 431.884,323.174 436.217,323.508 440.5,324.5C 433.33,346.526 422.33,366.193 407.5,383.5 Z"/></g>
<g><path style="opacity:0.5" fill="#665978" d="M 204.5,428.5 C 218.914,433.439 233.581,436.773 248.5,438.5C 246.393,439.468 244.059,439.802 241.5,439.5C 241.167,439.5 240.833,439.5 240.5,439.5C 228.728,437.405 217.061,434.405 205.5,430.5C 204.702,430.043 204.369,429.376 204.5,428.5 Z"/></g>
<g><path style="opacity:0.667" fill="#756484" d="M 308.5,432.5 C 308.119,433.931 307.119,434.764 305.5,435C 297.904,436.932 290.237,438.432 282.5,439.5C 282.5,438.833 282.5,438.167 282.5,437.5C 291.301,436.478 299.968,434.811 308.5,432.5 Z"/></g>
<g><path style="opacity:0.22" fill="#574f6d" d="M 400.5,392.5 C 401.167,392.5 401.833,392.5 402.5,392.5C 370.236,427.633 330.236,447.967 282.5,453.5C 282.5,452.833 282.5,452.167 282.5,451.5C 317.758,447.423 349.424,434.756 377.5,413.5C 385.776,407.191 393.443,400.191 400.5,392.5 Z"/></g>
<g><path style="opacity:0.667" fill="#43415c" d="M 282.5,437.5 C 282.5,438.167 282.5,438.833 282.5,439.5C 282.167,439.5 281.833,439.5 281.5,439.5C 280.209,439.737 279.209,439.404 278.5,438.5C 279.568,437.566 280.901,437.232 282.5,437.5 Z"/></g>
<g><path style="opacity:0.333" fill="#544c6a" d="M 138.5,405.5 C 142.122,407.787 145.455,410.453 148.5,413.5C 164.153,425.789 181.487,435.122 200.5,441.5C 224.557,450.635 249.557,454.302 275.5,452.5C 277.415,452.216 279.081,452.549 280.5,453.5C 233.715,457.635 191.048,446.135 152.5,419C 147.639,414.968 142.972,410.801 138.5,406.5C 138.5,406.167 138.5,405.833 138.5,405.5 Z"/></g>
<g><path style="opacity:1" fill="#f0bee7" d="M 377.5,413.5 C 349.424,434.756 317.758,447.423 282.5,451.5C 279.941,451.198 277.607,451.532 275.5,452.5C 249.557,454.302 224.557,450.635 200.5,441.5C 200.369,440.761 200.536,440.094 201,439.5C 213.589,440.682 226.756,440.682 240.5,439.5C 240.833,439.5 241.167,439.5 241.5,439.5C 246.305,440.487 251.305,440.821 256.5,440.5C 261.167,440.5 265.833,440.5 270.5,440.5C 274.371,440.815 278.038,440.482 281.5,439.5C 281.833,439.5 282.167,439.5 282.5,439.5C 290.237,438.432 297.904,436.932 305.5,435C 307.119,434.764 308.119,433.931 308.5,432.5C 309.167,432.5 309.833,432.5 310.5,432.5C 310.735,433.097 311.235,433.43 312,433.5C 328.375,428.226 343.875,421.226 358.5,412.5C 361.394,411.071 364.227,410.071 367,409.5C 368,410.5 369,411.5 370,412.5C 371,411.5 372,410.5 373,409.5C 375.363,409.332 376.863,410.665 377.5,413.5 Z"/></g>
<g><path style="opacity:0.667" fill="#aa8baf" d="M 248.5,438.5 C 251.167,438.5 253.833,438.5 256.5,438.5C 256.5,439.167 256.5,439.833 256.5,440.5C 251.305,440.821 246.305,440.487 241.5,439.5C 244.059,439.802 246.393,439.468 248.5,438.5 Z"/></g>
<g><path style="opacity:0.667" fill="#7f6c8c" d="M 256.5,438.5 C 261.167,438.5 265.833,438.5 270.5,438.5C 270.5,439.167 270.5,439.833 270.5,440.5C 265.833,440.5 261.167,440.5 256.5,440.5C 256.5,439.833 256.5,439.167 256.5,438.5 Z"/></g>
<g><path style="opacity:0.667" fill="#b492b7" d="M 270.5,438.5 C 273.167,438.5 275.833,438.5 278.5,438.5C 279.209,439.404 280.209,439.737 281.5,439.5C 278.038,440.482 274.371,440.815 270.5,440.5C 270.5,439.833 270.5,439.167 270.5,438.5 Z"/></g>
<g><path style="opacity:0.5" fill="#8d7597" d="M 275.5,452.5 C 277.607,451.532 279.941,451.198 282.5,451.5C 282.5,452.167 282.5,452.833 282.5,453.5C 281.833,453.5 281.167,453.5 280.5,453.5C 279.081,452.549 277.415,452.216 275.5,452.5 Z"/></g>
</svg>
